<?xml version="1.0" encoding="UTF-8" standalone="no"?>
<!-- Created with Inkscape (http://www.inkscape.org/) -->

<svg
   xmlns:dc="http://purl.org/dc/elements/1.1/"
   xmlns:cc="http://creativecommons.org/ns#"
   xmlns:rdf="http://www.w3.org/1999/02/22-rdf-syntax-ns#"
   xmlns:svg="http://www.w3.org/2000/svg"
   xmlns="http://www.w3.org/2000/svg"
   xmlns:sodipodi="http://sodipodi.sourceforge.net/DTD/sodipodi-0.dtd"
   xmlns:inkscape="http://www.inkscape.org/namespaces/inkscape"
   width="210mm"
   height="210mm"
   viewBox="0 0 744.09449 744.09448"
   id="svg2"
   version="1.1"
   inkscape:version="0.91 r13725"
   sodipodi:docname="potato.svg">
  <defs
     id="defs4" />
  <sodipodi:namedview
     id="base"
     pagecolor="#ffffff"
     bordercolor="#666666"
     borderopacity="1.0"
     inkscape:pageopacity="0.0"
     inkscape:pageshadow="2"
     inkscape:zoom="1.2865234"
     inkscape:cx="195.05769"
     inkscape:cy="343.00503"
     inkscape:document-units="px"
     inkscape:current-layer="layer1"
     showgrid="false"
     inkscape:window-width="1879"
     inkscape:window-height="1056"
     inkscape:window-x="41"
     inkscape:window-y="24"
     inkscape:window-maximized="1" />
  <metadata
     id="metadata7">
    <rdf:RDF>
      <cc:Work
         rdf:about="">
        <dc:format>image/svg+xml</dc:format>
        <dc:type
           rdf:resource="http://purl.org/dc/dcmitype/StillImage" />
        <dc:title></dc:title>
      </cc:Work>
    </rdf:RDF>
  </metadata>
  <g
     inkscape:label="Layer 1"
     inkscape:groupmode="layer"
     id="layer1"
     transform="translate(0,-308.26772)">
    <path
       style="color:#000000;font-style:normal;font-variant:normal;font-weight:normal;font-stretch:normal;font-size:medium;line-height:normal;font-family:sans-serif;text-indent:0;text-align:start;text-decoration:none;text-decoration-line:none;text-decoration-style:solid;text-decoration-color:#000000;letter-spacing:normal;word-spacing:normal;text-transform:none;direction:ltr;block-progression:tb;writing-mode:lr-tb;baseline-shift:baseline;text-anchor:start;white-space:normal;clip-rule:nonzero;display:inline;overflow:visible;visibility:visible;opacity:1;isolation:auto;mix-blend-mode:normal;color-interpolation:sRGB;color-interpolation-filters:linearRGB;solid-color:#000000;solid-opacity:1;fill:#552200;fill-opacity:1;fill-rule:evenodd;stroke:none;stroke-width:1;stroke-linecap:butt;stroke-linejoin:miter;stroke-miterlimit:4;stroke-dasharray:none;stroke-dashoffset:0;stroke-opacity:1;color-rendering:auto;image-rendering:auto;shape-rendering:auto;text-rendering:auto;enable-background:accumulate"
       d="m 277.2168,509.26562 c -7.42848,0.29359 -15.21293,-0.6373 -21.9961,1.21883 -6.3544,-0.20987 -12.09571,2.02706 -17.52345,3.20539 -4.41102,1.53056 -10.49951,0.95984 -13.94535,3.34197 -6.25994,1.05164 -12.55461,1.76597 -18.86718,2.92361 -6.47855,-0.0135 -10.42644,3.03452 -16.60548,3.59387 -2.52168,2.2586 -6.97731,2.48638 -9.78916,5.43796 -2.88439,1.96973 -7.20794,3.50175 -9.09955,6.76016 -1.64045,0.87171 -3.76789,2.95044 -4.34361,4.58213 -2.51851,1.67859 -4.57815,4.24087 -6.58977,6.98824 -3.2809,2.28275 -4.96232,6.67428 -8.71623,8.63612 -1.12167,2.16135 -4.20282,3.87512 -6.50565,5.52344 -3.01433,3.65395 -8.04115,4.36268 -10.88098,7.59203 -3.42022,3.03169 -9.49031,6.7855 -13.06791,10.8943 -2.38202,3.22778 -5.10104,4.80139 -7.45325,8.07032 -1.86792,5.34264 -4.93166,9.20944 -6.85765,14.43153 -1.87558,5.76679 -4.71724,10.16788 -6.355463,15.56436 -2.313482,3.76655 -2.661114,8.82923 -5.277346,12.41989 -1.348457,4.54919 -3.53764,9.27857 -4.511724,13.68349 -2.371258,3.75466 -2.700139,8.9546 -4.353509,13.9453 -0.752304,7.07344 -1.390607,14.80421 -0.99809,22.8986 0.74426,7.12152 1.564343,14.09543 1.087862,21.75197 0.791049,13.00826 -1.616877,27.37552 1.292977,39.46865 1.466674,2.98519 2.745151,6.94572 4.060585,10.1426 1.658824,3.06532 2.868316,5.96015 4.640655,9.43358 2.137748,2.33351 3.964153,5.0155 5.437522,7.61322 2.800141,1.58519 4.220771,3.7467 7.482351,6.34368 0.70664,3.88152 2.231,7.09022 4.29298,10.96281 0.38314,2.54724 2.20183,5.74352 4.34965,6.52534 2.7724,4.93718 8.33009,5.87911 12.10369,9.14511 2.0783,0.85793 4.47266,4.17617 5.74394,6.08182 4.90463,2.78243 8.21383,5.75968 12.97844,7.84204 10.56093,3.41141 20.9697,10.36454 31.08391,13.2108 3.51845,1.92786 7.46484,3.93756 10.79692,7.61354 4.05576,1.99389 6.6896,6.25633 11.41187,7.45334 3.6707,4.18618 8.47325,4.09433 11.73238,7.83056 3.15257,0.72335 5.64222,4.13552 9.22456,4.46702 3.33151,4.15483 9.93725,3.43063 13.54283,7.5257 3.47469,0.81246 6.93725,2.11197 10.09389,3.01946 4.3473,2.10643 10.12599,2.68968 13.55466,5.57227 4.10653,0.4594 8.77777,0.79523 11.50407,3.14834 9.50307,-0.10079 19.4886,0.78591 28.35541,-1.08534 8.3317,-0.75228 18.76507,1.62868 25.96484,-0.99421 8.0619,-0.30002 17.26141,0.69069 24.78705,-1.06639 4.46552,-1.59114 8.85793,-2.97792 13.92384,-4.48629 3.41862,-2.54501 7.50248,-3.09819 10.33588,-5.45921 11.91653,-4.19257 26.91209,-1.112 40.15822,-2.15628 5.96566,1.92857 12.73843,1.83343 19.28906,2.17914 5.41343,1.72755 11.81009,1.80857 16.40433,4.59963 8.42829,-0.45376 17.22178,0.69263 24.44336,-2.45873 5.91831,0.8905 9.18222,-3.60774 15.71676,-2.27556 4.84815,-1.76382 11.20804,-2.05268 17.00791,-2.9802 6.56129,-1.55751 12.49107,-1.35884 17.61528,-4.50186 3.5703,-2.0217 8.72189,-0.63104 11.28135,-3.32832 4.51351,-0.11933 7.66073,-2.64086 12.0957,-4.12519 3.30739,-2.73299 8.79066,-4.45594 13.78322,-5.72871 2.28455,-2.81058 7.68239,-3.06044 11.3241,-5.25008 5.93181,-1.7841 10.36537,-4.85598 16.77345,-5.4961 4.33051,-1.76279 9.63569,-4.03088 13.28316,-5.22284 3.47256,-1.96236 6.48405,-4.206 10.82612,-5.78547 3.2596,-3.36715 8.14711,-4.75138 11.15016,-7.32208 4.67354,-2.78328 7.93109,-7.3517 9.8067,-11.98068 2.15309,-2.71444 3.38294,-6.5508 5.14639,-8.97441 1.16552,-3.6128 2.30062,-6.82629 3.55494,-9.51559 2.2752,-3.48609 4.85285,-8.04264 6.463,-11.75577 1.58012,-4.03379 3.90478,-6.80441 4.58416,-10.7441 2.27466,-5.50929 2.26586,-11.72457 4.18983,-17.39453 -1.17988,-5.93913 3.87304,-8.44604 2.16709,-14.48645 1.74484,-4.23888 2.98765,-9.67502 3.11341,-14.93159 3.61047,-8.44154 6.3427,-17.831 5.49993,-28.2558 -0.0307,-6.96263 -2.31974,-12.88987 -3.00423,-19.59765 0.019,-5.32782 -1.90438,-9.17993 -3.61753,-14.05864 0.1017,-5.25376 -1.68567,-10.12033 -3.28327,-13.85153 -0.88075,-5.18598 -3.62186,-9.15531 -6.39661,-13.79093 -3.63267,-4.80583 -7.82112,-10.57837 -11.96495,-15.2261 -1.63173,-2.72695 -3.20924,-6.01011 -5.30881,-7.76558 -1.49002,-3.73565 -6.81959,-6.16649 -7.94735,-10.29293 -6.57837,-4.08672 -8.99266,-12.28854 -14.02206,-17.75571 -2.45893,-4.78719 -9.82436,-7.91043 -14.2203,-11.40416 -2.51616,-0.88296 -5.75599,-2.08354 -7.66195,-4.00395 -5.45926,0.46704 -7.24578,-5.03897 -12.1464,-5.56862 -4.10699,-5.48547 -10.48356,-5.69328 -15.22652,-9.7893 -6.90664,-0.71527 -12.84815,-3.86239 -20.24023,-3.28495 -2.72082,-3.60812 -10.80915,0.22778 -15.07236,-1.05672 -14.91161,-2.7103 -30.93687,-0.34667 -46.28125,-1.20889 -8.61067,2.83274 -19.2756,0.27616 -28.66217,1.12703 -11.03783,0.27201 -21.77886,0.11459 -31.74362,-2.17575 -6.95744,-0.12592 -12.92938,0.0805 -18.97117,-2.1017 -6.72245,-0.11275 -13.02313,-1.23646 -19.39645,-2.24833 -6.67722,-1.80871 -14.99275,-0.74328 -21.44336,-3.30827 -6.96513,-0.40556 -14.11592,-0.51516 -20.38094,-2.13058 -6.26307,0.28961 -10.41915,-2.2068 -16.00005,-3.1894 -5.39739,1.03892 -7.68202,-3.12182 -12.78904,-2.33397 -5.18418,-1.42482 -10.2634,-2.2742 -14.85938,-4.1778 -4.69053,-1.84573 -8.9458,-4.3022 -14.31448,-4.52548 -1.17836,-2.4778 -4.90633,0.24424 -6.76846,-2.16047 z m -0.0391,1.39844 c 4.51115,2.65026 9.93526,1.17976 14.4258,4.34783 3.90616,1.28448 8.84148,3.78906 13.86325,4.25782 3.27302,1.99855 7.74736,1.65737 10.74589,2.93761 5.23323,1.86261 12.08086,1.43549 16.50583,3.81845 3.39547,0.73311 7.94917,0.39536 10.4823,2.12523 7.35868,0.20515 13.67749,0.0214 20.27931,2.12701 8.09378,-0.26124 15.55035,1.76802 23.04101,2.4686 5.3424,2.47455 12.38212,-0.004 17.44922,3.02369 7.20849,0.15599 13.63369,1.76733 21.50396,1.03301 13.05621,4.20162 29.12257,1.401 43.61386,2.21101 8.88868,0.86326 16.35873,-1.91409 25.22014,-1.08787 13.68072,-0.0253 27.41266,-0.34681 40.74119,1.08768 7.29314,-0.39798 13.01275,1.78313 20.12598,2.074 5.45375,2.04686 10.86134,3.13528 15.69918,6.3398 4.41618,1.83747 8.17052,6.04496 12.84569,7.9867 2.97178,3.1492 7.52025,3.72321 10.76561,5.32068 2.49944,1.66252 4.99806,2.6484 7.92773,4.80886 5.94764,2.44192 9.79278,7.69734 13.24249,12.51566 3.29254,4.39065 5.47265,10.41513 9.85168,13.08786 1.52622,3.5274 5.99168,6.45338 7.4319,9.65819 1.67758,2.02408 3.88524,3.91023 5.14868,6.8807 3.88717,5.07581 8.97722,10.18966 12.2542,15.95871 3.74236,3.11657 5.26865,8.56971 7.15069,12.57611 1.5649,3.81968 1.7043,7.84757 3.61759,11.8848 -0.40301,4.72644 1.82105,9.51563 3.27542,12.91204 0.8339,6.39301 0.81015,13.19778 3.22907,19.00195 0.28287,10.50653 0.0148,21.30179 -4.3518,29.82809 -1.70102,4.83037 -1.09301,10.49104 -3.3946,15.12886 -1.32386,4.08424 -0.62316,9.29639 -3.13096,13.15045 -0.13841,5.8569 -1.27025,11.22851 -2.50646,16.60547 -1.67349,5.05343 -2.09735,9.03029 -5.1075,12.75969 -1.62897,5.35099 -4.59686,10.49879 -7.88487,15.0819 -1.1139,2.16742 -1.67344,5.64613 -3.15272,8.38862 -1.7236,3.23201 -2.94319,6.77327 -5.52161,9.94133 -0.66557,4.97632 -6.35923,9.04422 -9.80071,11.91212 -3.4638,1.57755 -7.80099,4.7466 -11.39429,6.57049 -3.3666,2.56068 -6.51889,3.33831 -9.26943,5.39457 -5.59824,2.35849 -12.54371,5.62404 -19.57812,6.40249 -3.16687,2.7971 -8.68211,3.24364 -12.56825,5.545 -4.64502,1.28434 -7.95373,3.40939 -11.87883,4.41019 -4.71448,3.10615 -9.58589,3.02467 -13.19135,6.51784 -4.06761,1.66419 -7.77771,2.37842 -11.15627,4.35938 -4.51449,-0.0892 -8.02023,1.20988 -11.87503,3.24808 -5.68938,1.48581 -12.17438,3.22894 -19.24607,3.27709 -4.40461,2.33994 -9.20701,1.31589 -14.16604,2.1898 -2.36979,2.30011 -9.11625,0.47949 -11.39253,3.24797 -7.50138,-0.0761 -13.633,3.62246 -21.78179,2.1018 -7.86064,1.61499 -12.49483,-4.43404 -20.55412,-3.1898 -5.73749,-2.12745 -12.4493,-1.59479 -18.80274,-2.24751 -10.91505,-2.60994 -23.91852,-0.25339 -35.60937,-1.15218 -4.74717,1.73778 -8.45969,2.83876 -12.74219,4.61924 -2.11267,2.88872 -8.75691,2.98785 -11.24021,5.32836 -5.19674,0.72419 -8.90094,2.57527 -14.1758,3.22109 -7.31024,0.1884 -15.89191,-0.88894 -21.9453,1.03495 -8.54072,0.75082 -18.17486,-1.39385 -26.125,0.87097 -8.39571,0.0132 -19.44956,1.22861 -26.4004,-0.9572 -3.39261,-1.83733 -7.68382,-1.92996 -11.33213,-3.10361 -4.10624,-2.49993 -9.50095,-2.84023 -13.04493,-5.58418 -4.2448,-0.10654 -7.66448,-1.73768 -10.88297,-4.20319 -4.48936,-1.0363 -7.69412,-2.62532 -10.87684,-5.43936 -3.65318,-0.20175 -6.4969,-3.71863 -9.40245,-4.81288 -2.27015,-2.50595 -6.89808,-3.2155 -9.9238,-5.85159 -5.41706,-3.02087 -9.17352,-6.68447 -13.85309,-10.16057 -3.84007,-3.02199 -6.85354,-5.09258 -10.76559,-6.48859 -11.39675,-4.18539 -24.30172,-11.22331 -34.99611,-15.2659 -3.64968,-1.93867 -6.41427,-6.13917 -9.15623,-7.45299 -1.52171,-3.76534 -5.30903,-4.6016 -8.44695,-7.02551 -2.47331,-0.69575 -5.06898,-3.38441 -7.49608,-4.71123 -1.2843,-3.29793 -4.05776,-4.88641 -5.49624,-8.61527 -1.87001,-4.33496 -1.95428,-7.68622 -4.97272,-11.65616 -3.59908,-2.82306 -5.48176,-5.44279 -7.982744,-8.75607 -2.440448,-1.0634 -3.215894,-5.66834 -5.492164,-7.34765 -0.644082,-3.95911 -3.778176,-7.23885 -4.394567,-11.39456 -1.666121,-4.33223 -3.889594,-7.70396 -3.18946,-13.32907 -0.05453,-15.13028 0.103751,-30.29484 -0.07222,-45.40329 -2.747573,-6.51276 -0.03885,-15.48669 -1.06441,-22.86135 2.172655,-3.90977 1.18766,-10.7339 3.193378,-15.25981 2.576469,-3.05568 2.520142,-8.41645 4.728516,-12.66594 2.141465,-5.98029 4.827036,-10.75175 6.353522,-16.65225 2.100307,-3.91139 3.660317,-8.14962 5.336057,-12.33396 2.32159,-6.12813 5.06904,-11.06645 7.88679,-16.69322 2.22887,-3.24437 4.79139,-6.44572 8.23856,-9.31437 3.66977,-5.44693 10.70874,-8.21113 14.58744,-12.86146 4.20513,-1.57239 7.9109,-4.90906 11.41976,-7.61368 4.86455,-1.03753 5.96111,-6.7181 9.88494,-8.89254 2.4792,-3.32225 6.19555,-6.37388 8.03842,-8.89383 1.88327,-2.89396 4.29597,-3.96181 6.23032,-6.51354 2.64428,-3.63632 8.02753,-5.27532 11.11147,-8.40906 4.64642,-1.12504 7.12951,-3.74628 12.248,-4.25769 5.4259,-1.64034 11.55363,-3.75214 18.43362,-3.26185 5.07777,-1.54551 10.63733,-2.36814 15.41212,-3.18005 4.28143,-2.05299 10.07293,-1.53271 13.79098,-3.34981 5.89102,-1.85951 11.47094,-1.42772 17.58598,-3.00204 5.57024,-0.79692 12.04823,0.0804 17.86851,-0.32716 z m 36.06055,10.45508 c 0.0189,0.0844 -0.27549,0.44897 0,0 z m -146.98047,17.99219 c 0.28647,0.012 -0.12805,0.14715 0,0 z"
       id="path3347"
       inkscape:connector-curvature="0" />
    <path
       style="color:#000000;font-style:normal;font-variant:normal;font-weight:normal;font-stretch:normal;font-size:medium;line-height:normal;font-family:sans-serif;text-indent:0;text-align:start;text-decoration:none;text-decoration-line:none;text-decoration-style:solid;text-decoration-color:#000000;letter-spacing:normal;word-spacing:normal;text-transform:none;direction:ltr;block-progression:tb;writing-mode:lr-tb;baseline-shift:baseline;text-anchor:start;white-space:normal;clip-rule:nonzero;display:inline;overflow:visible;visibility:visible;opacity:1;isolation:auto;mix-blend-mode:normal;color-interpolation:sRGB;color-interpolation-filters:linearRGB;solid-color:#000000;solid-opacity:1;fill:#552200;fill-opacity:1;fill-rule:evenodd;stroke:none;stroke-width:1;stroke-linecap:butt;stroke-linejoin:miter;stroke-miterlimit:4;stroke-dasharray:none;stroke-dashoffset:0;stroke-opacity:1;color-rendering:auto;image-rendering:auto;shape-rendering:auto;text-rendering:auto;enable-background:accumulate"
       d="m 264.18164,720.14453 c -1.87521,2.90393 2.55605,8.3169 2.8497,12.87697 1.79265,5.1329 2.05807,10.88458 2.50815,16.60743 4.19066,11.43891 2.53787,25.27898 5.37656,37.89067 1.42958,3.40859 0.0761,8.72875 2.1938,11.62119 0.89128,5.0001 5.62823,4.6002 3.54296,-1.96886 3.04553,-9.14135 -7.75779,-12.49117 -3.29842,-19.35761 0.58101,-6.85837 -1.66459,-12.63283 -3.332,-18.625 -0.86597,-7.5495 -0.97928,-15.34792 -3.23213,-22.15039 -0.71975,-5.85465 -2.7274,-10.16227 -4.48049,-15.41024 -1.50961,0.30904 -0.42736,-1.93107 -2.12813,-1.48416 z m 1.21484,3.60156 c 1.70602,1.33691 0.42841,1.34257 0,0 z m 0.98633,3.15235 c 2.07596,1.81013 0.16676,1.01266 0,0 z m 2.38086,3.72851 c 0.0891,0.0119 -0.0456,0.0106 0,0 z m -1.16406,0.0274 c 1.9542,2.31924 -0.39794,1.97019 0,0 z m 1.04883,2.90234 c 2.44053,3.18584 -0.62763,2.0791 0,0 z m 1.20508,4.42188 c 2.51019,4.4111 -1.52535,7.34185 0,0 z m 1.09765,6.55273 c 3.0077,2.27144 -1.89284,10.159 0,0 z m 0.98242,8.7832 c 2.39073,3.09006 -0.66936,1.85019 0,0 z m 1.10547,7.43946 c 2.0266,1.29211 0.0967,5.56385 0,0 z m 1.11328,4.3789 c 2.76066,4.21929 1.96221,22.17883 -0.0467,6.85352 l 0.0215,-2.00586 0.0254,-4.84766 -1.5e-4,0 z m -0.30859,18.09375 c 0.0135,0.0133 0.008,0.0647 0,0 z m 1.83789,1.58985 c 3.90864,1.52303 4.21181,12.58168 2.76329,14.7364 -1.73983,-4.24103 -0.77151,-9.97097 -2.76329,-14.7364 z"
       id="path3349"
       inkscape:connector-curvature="0" />
    <path
       style="color:#000000;font-style:normal;font-variant:normal;font-weight:normal;font-stretch:normal;font-size:medium;line-height:normal;font-family:sans-serif;text-indent:0;text-align:start;text-decoration:none;text-decoration-line:none;text-decoration-style:solid;text-decoration-color:#000000;letter-spacing:normal;word-spacing:normal;text-transform:none;direction:ltr;block-progression:tb;writing-mode:lr-tb;baseline-shift:baseline;text-anchor:start;white-space:normal;clip-rule:nonzero;display:inline;overflow:visible;visibility:visible;opacity:1;isolation:auto;mix-blend-mode:normal;color-interpolation:sRGB;color-interpolation-filters:linearRGB;solid-color:#000000;solid-opacity:1;fill:#552200;fill-opacity:1;fill-rule:evenodd;stroke:none;stroke-width:1;stroke-linecap:butt;stroke-linejoin:miter;stroke-miterlimit:4;stroke-dasharray:none;stroke-dashoffset:0;stroke-opacity:1;color-rendering:auto;image-rendering:auto;shape-rendering:auto;text-rendering:auto;enable-background:accumulate"
       d="m 347.38672,551.75391 c -4.38304,3.19864 -5.84149,23.87587 -3.66055,18.99609 5.76733,7.58513 11.07373,16.17529 15.77346,23.49224 3.17876,5.66783 7.91586,12.18555 10.10185,17.2559 4.04897,8.9595 4.43809,-4.0568 6.81987,-7.44336 0.49443,-6.94819 -0.12231,-13.50538 -3.33576,-18.82614 -1.66991,-4.61881 -3.0977,-8.3416 -5.33596,-11.79089 -1.20482,-2.68387 -3.80614,-7.09808 -6.24642,-9.02332 -2.8917,-3.25506 -6.05085,-6.06484 -8.52337,-7.78327 -1.52824,-2.31306 -3.3377,-3.5167 -5.59312,-4.87725 z m -0.10352,1.42578 c 2.87837,1.91759 3.45259,5.25158 7.00395,6.19158 1.357,2.50337 4.18234,3.53036 6.52736,6.52545 2.34726,2.49607 4.7877,6.09219 6.4512,9.07803 1.51305,3.94804 4.40063,8.46237 5.5977,13.6834 3.51768,5.05777 2.72512,13.703 0.75606,19.24416 -1.45621,7.96222 -1.31586,4.13414 -4.60955,-3e-5 -3.43163,-8.22462 -9.65801,-15.02222 -13.59397,-23.53514 -3.96616,-6.42452 -15.8196,-15.79345 -9.57999,-25.07616 -0.42637,-2.39808 1.66054,-3.87655 1.44724,-6.11129 z"
       id="path3351"
       inkscape:connector-curvature="0" />
    <path
       style="color:#000000;font-style:normal;font-variant:normal;font-weight:normal;font-stretch:normal;font-size:medium;line-height:normal;font-family:sans-serif;text-indent:0;text-align:start;text-decoration:none;text-decoration-line:none;text-decoration-style:solid;text-decoration-color:#000000;letter-spacing:normal;word-spacing:normal;text-transform:none;direction:ltr;block-progression:tb;writing-mode:lr-tb;baseline-shift:baseline;text-anchor:start;white-space:normal;clip-rule:nonzero;display:inline;overflow:visible;visibility:visible;opacity:1;isolation:auto;mix-blend-mode:normal;color-interpolation:sRGB;color-interpolation-filters:linearRGB;solid-color:#000000;solid-opacity:1;fill:#552200;fill-opacity:1;fill-rule:evenodd;stroke:none;stroke-width:1;stroke-linecap:butt;stroke-linejoin:miter;stroke-miterlimit:4;stroke-dasharray:none;stroke-dashoffset:0;stroke-opacity:1;color-rendering:auto;image-rendering:auto;shape-rendering:auto;text-rendering:auto;enable-background:accumulate"
       d="m 529.63867,808.34961 c -2.52421,4.02351 -1.86402,12.8991 -0.0236,17.59567 2.11901,2.84347 3.21505,7.67624 6.54887,10.08016 6.57412,0.87477 2.06588,-8.9113 3.27121,-13.0646 -1.51466,-11.93902 -4.52293,-10.64083 -1.25998,0.76759 0.16805,3.49681 0.7618,16.04098 -3.55861,7.96459 -2.34739,-3.97768 -5.11059,-7.41873 -4.89673,-12.76952 -0.28435,-3.54374 0.43,-8.44825 -0.0812,-10.57389 z"
       id="path3353"
       inkscape:connector-curvature="0" />
    <path
       style="color:#000000;font-style:normal;font-variant:normal;font-weight:normal;font-stretch:normal;font-size:medium;line-height:normal;font-family:sans-serif;text-indent:0;text-align:start;text-decoration:none;text-decoration-line:none;text-decoration-style:solid;text-decoration-color:#000000;letter-spacing:normal;word-spacing:normal;text-transform:none;direction:ltr;block-progression:tb;writing-mode:lr-tb;baseline-shift:baseline;text-anchor:start;white-space:normal;clip-rule:nonzero;display:inline;overflow:visible;visibility:visible;opacity:1;isolation:auto;mix-blend-mode:normal;color-interpolation:sRGB;color-interpolation-filters:linearRGB;solid-color:#000000;solid-opacity:1;fill:#552200;fill-opacity:1;fill-rule:evenodd;stroke:none;stroke-width:1;stroke-linecap:butt;stroke-linejoin:miter;stroke-miterlimit:4;stroke-dasharray:none;stroke-dashoffset:0;stroke-opacity:1;color-rendering:auto;image-rendering:auto;shape-rendering:auto;text-rendering:auto;enable-background:accumulate"
       d="m 543.54883,588.3457 c 3.87432,9.29481 -15.87588,1.25405 -17.22849,10.26172 -3.99283,4.66426 0.60503,9.99336 6.25918,7.83976 8.5722,-1.04659 20.26137,2.35589 26.59422,-2.40624 -0.9531,-6.1017 -4.45653,-9.3191 -8.28513,-10.94753 -6.13372,2.72961 -4.57678,-4.59803 -7.33978,-4.74771 z m 7.10937,6.12696 c 1.89604,1.71323 11.72659,8.30328 4.44545,10.35938 -8.85318,0.41587 -18.73626,0.21545 -27.48834,0.12888 -4.35098,-4.99153 3.90832,-11.44983 9.60817,-10.47848 4.47737,-0.12929 8.98945,0.19592 13.43472,-0.01 z"
       id="path3355"
       inkscape:connector-curvature="0" />
    <path
       style="color:#000000;font-style:normal;font-variant:normal;font-weight:normal;font-stretch:normal;font-size:medium;line-height:normal;font-family:sans-serif;text-indent:0;text-align:start;text-decoration:none;text-decoration-line:none;text-decoration-style:solid;text-decoration-color:#000000;letter-spacing:normal;word-spacing:normal;text-transform:none;direction:ltr;block-progression:tb;writing-mode:lr-tb;baseline-shift:baseline;text-anchor:start;white-space:normal;clip-rule:nonzero;display:inline;overflow:visible;visibility:visible;opacity:1;isolation:auto;mix-blend-mode:normal;color-interpolation:sRGB;color-interpolation-filters:linearRGB;solid-color:#000000;solid-opacity:1;fill:#552200;fill-opacity:1;fill-rule:evenodd;stroke:none;stroke-width:1;stroke-linecap:butt;stroke-linejoin:miter;stroke-miterlimit:4;stroke-dasharray:none;stroke-dashoffset:0;stroke-opacity:1;color-rendering:auto;image-rendering:auto;shape-rendering:auto;text-rendering:auto;enable-background:accumulate"
       d="m 455.53125,614.75 c -5.48306,0.8644 -7.11822,7.51566 -8.86921,11.0449 2.89873,6.09584 23.24311,7.08428 13.22067,6.27154 -2.67409,-5.02723 1.53781,-14.30949 -2.85923,-16.79508 -0.73743,0.98677 0.13718,-2.10491 -1.49223,-0.52136 z m -1.24414,1.41211 c 4.72309,1.51814 5.95133,20.60576 -1.08785,11.79905 -7.36884,-0.97738 -4.15181,-5.0762 -1.4472,-9.29311 0.81454,-0.86523 1.66471,-1.69774 2.53505,-2.50594 z"
       id="path3357"
       inkscape:connector-curvature="0" />
    <path
       style="color:#000000;font-style:normal;font-variant:normal;font-weight:normal;font-stretch:normal;font-size:medium;line-height:normal;font-family:sans-serif;text-indent:0;text-align:start;text-decoration:none;text-decoration-line:none;text-decoration-style:solid;text-decoration-color:#000000;letter-spacing:normal;word-spacing:normal;text-transform:none;direction:ltr;block-progression:tb;writing-mode:lr-tb;baseline-shift:baseline;text-anchor:start;white-space:normal;clip-rule:nonzero;display:inline;overflow:visible;visibility:visible;opacity:1;isolation:auto;mix-blend-mode:normal;color-interpolation:sRGB;color-interpolation-filters:linearRGB;solid-color:#000000;solid-opacity:1;fill:#552200;fill-opacity:1;fill-rule:evenodd;stroke:none;stroke-width:1;stroke-linecap:butt;stroke-linejoin:miter;stroke-miterlimit:4;stroke-dasharray:none;stroke-dashoffset:0;stroke-opacity:1;color-rendering:auto;image-rendering:auto;shape-rendering:auto;text-rendering:auto;enable-background:accumulate"
       d="m 452.27344,608.49609 c -1.07486,8.90992 14.528,2.7266 4.28177,0.51378 1.75464,2.85781 1.29197,2.50601 -4.28177,-0.51378 z"
       id="path3359"
       inkscape:connector-curvature="0" />
    <path
       style="color:#000000;font-style:normal;font-variant:normal;font-weight:normal;font-stretch:normal;font-size:medium;line-height:normal;font-family:sans-serif;text-indent:0;text-align:start;text-decoration:none;text-decoration-line:none;text-decoration-style:solid;text-decoration-color:#000000;letter-spacing:normal;word-spacing:normal;text-transform:none;direction:ltr;block-progression:tb;writing-mode:lr-tb;baseline-shift:baseline;text-anchor:start;white-space:normal;clip-rule:nonzero;display:inline;overflow:visible;visibility:visible;opacity:1;isolation:auto;mix-blend-mode:normal;color-interpolation:sRGB;color-interpolation-filters:linearRGB;solid-color:#000000;solid-opacity:1;fill:#552200;fill-opacity:1;fill-rule:evenodd;stroke:none;stroke-width:1;stroke-linecap:butt;stroke-linejoin:miter;stroke-miterlimit:4;stroke-dasharray:none;stroke-dashoffset:0;stroke-opacity:1;color-rendering:auto;image-rendering:auto;shape-rendering:auto;text-rendering:auto;enable-background:accumulate"
       d="m 479.37891,602.48438 c -3.1813,0.51031 -15.7212,-0.8413 -10.64632,5.13663 3.27443,-1.70461 13.44766,3.29828 12.05692,-3.32214 12.65724,2.05521 3.45148,-2.00083 -1.4106,-1.81449 z m -9.43946,1.73437 c 11.43976,-1.16204 10.98288,3.49138 -0.331,1.91617 -2.75889,-0.0212 0.87003,-0.98461 0.331,-1.91617 z"
       id="path3361"
       inkscape:connector-curvature="0" />
    <path
       style="color:#000000;font-style:normal;font-variant:normal;font-weight:normal;font-stretch:normal;font-size:medium;line-height:normal;font-family:sans-serif;text-indent:0;text-align:start;text-decoration:none;text-decoration-line:none;text-decoration-style:solid;text-decoration-color:#000000;letter-spacing:normal;word-spacing:normal;text-transform:none;direction:ltr;block-progression:tb;writing-mode:lr-tb;baseline-shift:baseline;text-anchor:start;white-space:normal;clip-rule:nonzero;display:inline;overflow:visible;visibility:visible;opacity:1;isolation:auto;mix-blend-mode:normal;color-interpolation:sRGB;color-interpolation-filters:linearRGB;solid-color:#000000;solid-opacity:1;fill:#552200;fill-opacity:1;fill-rule:evenodd;stroke:none;stroke-width:1;stroke-linecap:butt;stroke-linejoin:miter;stroke-miterlimit:4;stroke-dasharray:none;stroke-dashoffset:0;stroke-opacity:1;color-rendering:auto;image-rendering:auto;shape-rendering:auto;text-rendering:auto;enable-background:accumulate"
       d="m 568.56445,677.53125 c 0.85177,2.13808 2.62048,4.4835 3.13279,7.52954 6.19835,-3.26096 2.45509,15.44457 14.19335,12.67383 0.12826,-3.12511 -2.22902,-5.94004 -4.03728,-8.55255 -3.61939,-6.82772 -9.597,-3.2334 -10.71684,-10.32424 -0.12807,-1.26649 -1.62247,-1.54246 -2.57202,-1.32658 z m 1.17774,1.32422 c 0.29466,-0.0742 -0.0152,0.15466 0,0 z m 6.87304,7.93945 c 3.96641,2.9326 7.36764,6.71207 7.47835,10.12675 -2.63985,-1.76475 -10.89355,-5.82775 -7.47835,-10.12675 z"
       id="path3363"
       inkscape:connector-curvature="0" />
    <path
       style="color:#000000;font-style:normal;font-variant:normal;font-weight:normal;font-stretch:normal;font-size:medium;line-height:normal;font-family:sans-serif;text-indent:0;text-align:start;text-decoration:none;text-decoration-line:none;text-decoration-style:solid;text-decoration-color:#000000;letter-spacing:normal;word-spacing:normal;text-transform:none;direction:ltr;block-progression:tb;writing-mode:lr-tb;baseline-shift:baseline;text-anchor:start;white-space:normal;clip-rule:nonzero;display:inline;overflow:visible;visibility:visible;opacity:1;isolation:auto;mix-blend-mode:normal;color-interpolation:sRGB;color-interpolation-filters:linearRGB;solid-color:#000000;solid-opacity:1;fill:#552200;fill-opacity:1;fill-rule:evenodd;stroke:none;stroke-width:1;stroke-linecap:butt;stroke-linejoin:miter;stroke-miterlimit:4;stroke-dasharray:none;stroke-dashoffset:0;stroke-opacity:1;color-rendering:auto;image-rendering:auto;shape-rendering:auto;text-rendering:auto;enable-background:accumulate"
       d="m 626.74023,722.33594 c -2.43604,3.87464 -7.87697,4.6337 -9.18938,8.19542 -2.47897,0.99561 -2.902,5.54353 -3.39283,8.22661 -3.21539,2.09587 -1.21738,10.21423 2.94081,9.3397 4.448,3.15612 12.90241,3.04536 15.64642,-1.36156 5.73375,-2.77071 5.01269,-11.97998 4.56174,-18.42571 -3.04806,-2.08504 -5.84558,-5.48347 -10.56676,-5.97446 z m 1.0293,1.54492 c 8.23499,2.27401 9.818,8.23884 8.26369,16.51192 -1.62772,3.58068 -3.88321,6.36405 -7.4434,7.3398 -3.21922,2.89625 -9.79491,-0.0244 -12.87498,-1.37856 -3.33002,-3.71927 0.80047,-8.60611 0.84761,-12.88477 1.88382,-0.0803 1.76356,-4.21663 4.13258,-4.19418 2.90542,-1.18675 3.98082,-5.25219 7.0745,-5.39421 z m -8.95898,6.0918 c 0.0208,0.16006 -0.29692,-0.0783 0,0 z m -1.1836,0.5625 c 0.28315,0.0131 -0.12894,0.14481 0,0 z"
       id="path3365"
       inkscape:connector-curvature="0" />
    <path
       style="color:#000000;font-style:normal;font-variant:normal;font-weight:normal;font-stretch:normal;font-size:medium;line-height:normal;font-family:sans-serif;text-indent:0;text-align:start;text-decoration:none;text-decoration-line:none;text-decoration-style:solid;text-decoration-color:#000000;letter-spacing:normal;word-spacing:normal;text-transform:none;direction:ltr;block-progression:tb;writing-mode:lr-tb;baseline-shift:baseline;text-anchor:start;white-space:normal;clip-rule:nonzero;display:inline;overflow:visible;visibility:visible;opacity:1;isolation:auto;mix-blend-mode:normal;color-interpolation:sRGB;color-interpolation-filters:linearRGB;solid-color:#000000;solid-opacity:1;fill:#552200;fill-opacity:1;fill-rule:evenodd;stroke:none;stroke-width:1;stroke-linecap:butt;stroke-linejoin:miter;stroke-miterlimit:4;stroke-dasharray:none;stroke-dashoffset:0;stroke-opacity:1;color-rendering:auto;image-rendering:auto;shape-rendering:auto;text-rendering:auto;enable-background:accumulate"
       d="m 240.09766,616.62305 c -10.26085,-3.07914 -1.8493,12.00496 -8.95112,4.75192 -4.529,1.22661 -8.88694,12.73571 -3.84572,11.63285 3.23875,-1.47504 4.20218,-6.55855 8.55454,-8.27525 -2.99449,-4.86616 -0.12555,-6.20978 5.03132,-6.32663 1.15763,-0.14618 0.97842,-3.1548 -0.78902,-1.78289 z m -9.10938,6.20898 c 4.9445,2.2738 -3.15251,6.39384 -3.96473,7.87118 -2.54607,2.19766 2.12416,-7.58272 3.96473,-7.87118 z"
       id="path3367"
       inkscape:connector-curvature="0" />
    <path
       style="color:#000000;font-style:normal;font-variant:normal;font-weight:normal;font-stretch:normal;font-size:medium;line-height:normal;font-family:sans-serif;text-indent:0;text-align:start;text-decoration:none;text-decoration-line:none;text-decoration-style:solid;text-decoration-color:#000000;letter-spacing:normal;word-spacing:normal;text-transform:none;direction:ltr;block-progression:tb;writing-mode:lr-tb;baseline-shift:baseline;text-anchor:start;white-space:normal;clip-rule:nonzero;display:inline;overflow:visible;visibility:visible;opacity:1;isolation:auto;mix-blend-mode:normal;color-interpolation:sRGB;color-interpolation-filters:linearRGB;solid-color:#000000;solid-opacity:1;fill:#552200;fill-opacity:1;fill-rule:evenodd;stroke:none;stroke-width:1;stroke-linecap:butt;stroke-linejoin:miter;stroke-miterlimit:4;stroke-dasharray:none;stroke-dashoffset:0;stroke-opacity:1;color-rendering:auto;image-rendering:auto;shape-rendering:auto;text-rendering:auto;enable-background:accumulate"
       d="m 179.23633,634.86523 c -1.1956,10.32335 -4.41159,3.34245 -1.22069,11.59365 3.32725,6.30571 1.78243,-12.52663 1.22069,-11.59365 z"
       id="path3369"
       inkscape:connector-curvature="0" />
    <path
       style="color:#000000;font-style:normal;font-variant:normal;font-weight:normal;font-stretch:normal;font-size:medium;line-height:normal;font-family:sans-serif;text-indent:0;text-align:start;text-decoration:none;text-decoration-line:none;text-decoration-style:solid;text-decoration-color:#000000;letter-spacing:normal;word-spacing:normal;text-transform:none;direction:ltr;block-progression:tb;writing-mode:lr-tb;baseline-shift:baseline;text-anchor:start;white-space:normal;clip-rule:nonzero;display:inline;overflow:visible;visibility:visible;opacity:1;isolation:auto;mix-blend-mode:normal;color-interpolation:sRGB;color-interpolation-filters:linearRGB;solid-color:#000000;solid-opacity:1;fill:#552200;fill-opacity:1;fill-rule:evenodd;stroke:none;stroke-width:1;stroke-linecap:butt;stroke-linejoin:miter;stroke-miterlimit:4;stroke-dasharray:none;stroke-dashoffset:0;stroke-opacity:1;color-rendering:auto;image-rendering:auto;shape-rendering:auto;text-rendering:auto;enable-background:accumulate"
       d="m 177.09766,609.31055 c -4.65243,-0.197 -16.90474,10.82005 -11.71136,9.95717 1.22485,-3.02545 13.25901,-13.60921 11.62918,-4.52382 3.85931,6.51629 -14.2026,5.85311 -5.05674,5.92817 8.81627,3.59021 6.39359,-5.87162 6.35709,-10.93214 l -0.10743,-0.13671 -1.11132,-0.29297 5.8e-4,3e-4 z"
       id="path3371"
       inkscape:connector-curvature="0" />
    <path
       style="color:#000000;font-style:normal;font-variant:normal;font-weight:normal;font-stretch:normal;font-size:medium;line-height:normal;font-family:sans-serif;text-indent:0;text-align:start;text-decoration:none;text-decoration-line:none;text-decoration-style:solid;text-decoration-color:#000000;letter-spacing:normal;word-spacing:normal;text-transform:none;direction:ltr;block-progression:tb;writing-mode:lr-tb;baseline-shift:baseline;text-anchor:start;white-space:normal;clip-rule:nonzero;display:inline;overflow:visible;visibility:visible;opacity:1;isolation:auto;mix-blend-mode:normal;color-interpolation:sRGB;color-interpolation-filters:linearRGB;solid-color:#000000;solid-opacity:1;fill:#552200;fill-opacity:1;fill-rule:evenodd;stroke:none;stroke-width:1;stroke-linecap:butt;stroke-linejoin:miter;stroke-miterlimit:4;stroke-dasharray:none;stroke-dashoffset:0;stroke-opacity:1;color-rendering:auto;image-rendering:auto;shape-rendering:auto;text-rendering:auto;enable-background:accumulate"
       d="m 164.25391,605.57812 c -4.36908,3.34635 4.79535,9.65405 0,0 z"
       id="path3373"
       inkscape:connector-curvature="0" />
    <path
       style="color:#000000;font-style:normal;font-variant:normal;font-weight:normal;font-stretch:normal;font-size:medium;line-height:normal;font-family:sans-serif;text-indent:0;text-align:start;text-decoration:none;text-decoration-line:none;text-decoration-style:solid;text-decoration-color:#000000;letter-spacing:normal;word-spacing:normal;text-transform:none;direction:ltr;block-progression:tb;writing-mode:lr-tb;baseline-shift:baseline;text-anchor:start;white-space:normal;clip-rule:nonzero;display:inline;overflow:visible;visibility:visible;opacity:1;isolation:auto;mix-blend-mode:normal;color-interpolation:sRGB;color-interpolation-filters:linearRGB;solid-color:#000000;solid-opacity:1;fill:#552200;fill-opacity:1;fill-rule:evenodd;stroke:none;stroke-width:1;stroke-linecap:butt;stroke-linejoin:miter;stroke-miterlimit:4;stroke-dasharray:none;stroke-dashoffset:0;stroke-opacity:1;color-rendering:auto;image-rendering:auto;shape-rendering:auto;text-rendering:auto;enable-background:accumulate"
       d="m 156.58008,701.75977 c -4.65675,7.40249 -0.7822,14.15067 -0.0117,1.64648 2.28748,2.67034 4.94175,6.50536 2.17778,-0.50191 0.61976,-1.54035 -1.46148,-0.93569 -2.16607,-1.14457 z m 1.0625,0.29296 c -0.26877,0.60653 -0.13101,0.10769 0,0 z"
       id="path3375"
       inkscape:connector-curvature="0" />
    <path
       style="color:#000000;font-style:normal;font-variant:normal;font-weight:normal;font-stretch:normal;font-size:medium;line-height:normal;font-family:sans-serif;text-indent:0;text-align:start;text-decoration:none;text-decoration-line:none;text-decoration-style:solid;text-decoration-color:#000000;letter-spacing:normal;word-spacing:normal;text-transform:none;direction:ltr;block-progression:tb;writing-mode:lr-tb;baseline-shift:baseline;text-anchor:start;white-space:normal;clip-rule:nonzero;display:inline;overflow:visible;visibility:visible;opacity:1;isolation:auto;mix-blend-mode:normal;color-interpolation:sRGB;color-interpolation-filters:linearRGB;solid-color:#000000;solid-opacity:1;fill:#552200;fill-opacity:1;fill-rule:evenodd;stroke:none;stroke-width:1;stroke-linecap:butt;stroke-linejoin:miter;stroke-miterlimit:4;stroke-dasharray:none;stroke-dashoffset:0;stroke-opacity:1;color-rendering:auto;image-rendering:auto;shape-rendering:auto;text-rendering:auto;enable-background:accumulate"
       d="m 188.1543,684.88672 c 0.25256,4.97914 -3.05523,7.79368 -1.27535,10.35962 4.41464,8.63476 2.05947,-8.73123 1.27535,-10.35962 z m -1.25977,9.19531 c 0.29466,-0.0743 -0.0153,0.15494 0,0 z"
       id="path3377"
       inkscape:connector-curvature="0" />
    <path
       style="color:#000000;font-style:normal;font-variant:normal;font-weight:normal;font-stretch:normal;font-size:medium;line-height:normal;font-family:sans-serif;text-indent:0;text-align:start;text-decoration:none;text-decoration-line:none;text-decoration-style:solid;text-decoration-color:#000000;letter-spacing:normal;word-spacing:normal;text-transform:none;direction:ltr;block-progression:tb;writing-mode:lr-tb;baseline-shift:baseline;text-anchor:start;white-space:normal;clip-rule:nonzero;display:inline;overflow:visible;visibility:visible;opacity:1;isolation:auto;mix-blend-mode:normal;color-interpolation:sRGB;color-interpolation-filters:linearRGB;solid-color:#000000;solid-opacity:1;fill:#552200;fill-opacity:1;fill-rule:evenodd;stroke:none;stroke-width:1;stroke-linecap:butt;stroke-linejoin:miter;stroke-miterlimit:4;stroke-dasharray:none;stroke-dashoffset:0;stroke-opacity:1;color-rendering:auto;image-rendering:auto;shape-rendering:auto;text-rendering:auto;enable-background:accumulate"
       d="m 306.47461,672.97656 c 1.92209,3.78071 9.74968,11.61068 3.43745,16.02344 -1.30569,0.14637 -4.41816,-6.57516 -2.48438,0.88262 5.03761,4.79797 8.10533,-6.99793 4.75213,-10.5742 -0.8599,-2.60316 -4.52908,-4.35279 -5.7052,-6.33186 z"
       id="path3379"
       inkscape:connector-curvature="0" />
    <path
       style="color:#000000;font-style:normal;font-variant:normal;font-weight:normal;font-stretch:normal;font-size:medium;line-height:normal;font-family:sans-serif;text-indent:0;text-align:start;text-decoration:none;text-decoration-line:none;text-decoration-style:solid;text-decoration-color:#000000;letter-spacing:normal;word-spacing:normal;text-transform:none;direction:ltr;block-progression:tb;writing-mode:lr-tb;baseline-shift:baseline;text-anchor:start;white-space:normal;clip-rule:nonzero;display:inline;overflow:visible;visibility:visible;opacity:1;isolation:auto;mix-blend-mode:normal;color-interpolation:sRGB;color-interpolation-filters:linearRGB;solid-color:#000000;solid-opacity:1;fill:#552200;fill-opacity:1;fill-rule:evenodd;stroke:none;stroke-width:1;stroke-linecap:butt;stroke-linejoin:miter;stroke-miterlimit:4;stroke-dasharray:none;stroke-dashoffset:0;stroke-opacity:1;color-rendering:auto;image-rendering:auto;shape-rendering:auto;text-rendering:auto;enable-background:accumulate"
       d="m 368.65234,781.01367 c -5.35004,6.01619 6.19918,12.56883 10.75781,14.73845 9.08826,-4.00337 -3.7467,-20.55717 2.07985,-5.10742 -0.81542,9.98801 -15.93926,-4.87505 -11.84377,-8.15061 0.57399,-0.62514 -0.23929,-1.68192 -0.99389,-1.48042 z"
       id="path3381"
       inkscape:connector-curvature="0" />
    <path
       style="color:#000000;font-style:normal;font-variant:normal;font-weight:normal;font-stretch:normal;font-size:medium;line-height:normal;font-family:sans-serif;text-indent:0;text-align:start;text-decoration:none;text-decoration-line:none;text-decoration-style:solid;text-decoration-color:#000000;letter-spacing:normal;word-spacing:normal;text-transform:none;direction:ltr;block-progression:tb;writing-mode:lr-tb;baseline-shift:baseline;text-anchor:start;white-space:normal;clip-rule:nonzero;display:inline;overflow:visible;visibility:visible;opacity:1;isolation:auto;mix-blend-mode:normal;color-interpolation:sRGB;color-interpolation-filters:linearRGB;solid-color:#000000;solid-opacity:1;fill:#552200;fill-opacity:1;fill-rule:evenodd;stroke:none;stroke-width:1;stroke-linecap:butt;stroke-linejoin:miter;stroke-miterlimit:4;stroke-dasharray:none;stroke-dashoffset:0;stroke-opacity:1;color-rendering:auto;image-rendering:auto;shape-rendering:auto;text-rendering:auto;enable-background:accumulate"
       d="m 359.83398,738.8125 c -2.74233,1.28982 -3.2696,5.57102 -4.44528,8.32852 1.66181,7.23669 0.80019,-4.69169 4.5877,-6.21289 6.72546,-4.22145 5.97147,5.57694 3.01186,7.99621 -10.11084,10.3736 2.16455,1.80292 3.67417,-3.48826 1.16395,-5.46127 -1.4002,-7.50378 -6.82845,-6.62358 z"
       id="path3383"
       inkscape:connector-curvature="0" />
    <path
       style="color:#000000;font-style:normal;font-variant:normal;font-weight:normal;font-stretch:normal;font-size:medium;line-height:normal;font-family:sans-serif;text-indent:0;text-align:start;text-decoration:none;text-decoration-line:none;text-decoration-style:solid;text-decoration-color:#000000;letter-spacing:normal;word-spacing:normal;text-transform:none;direction:ltr;block-progression:tb;writing-mode:lr-tb;baseline-shift:baseline;text-anchor:start;white-space:normal;clip-rule:nonzero;display:inline;overflow:visible;visibility:visible;opacity:1;isolation:auto;mix-blend-mode:normal;color-interpolation:sRGB;color-interpolation-filters:linearRGB;solid-color:#000000;solid-opacity:1;fill:#552200;fill-opacity:1;fill-rule:evenodd;stroke:none;stroke-width:1;stroke-linecap:butt;stroke-linejoin:miter;stroke-miterlimit:4;stroke-dasharray:none;stroke-dashoffset:0;stroke-opacity:1;color-rendering:auto;image-rendering:auto;shape-rendering:auto;text-rendering:auto;enable-background:accumulate"
       d="m 446.91992,705.39062 c 0.11343,2.70463 7.99295,16.81276 -2.09591,8.48244 0.69729,-3.74674 -5.341,-5.85305 -2.46476,-3.41367 -0.96949,4.10223 9.10867,11.01065 9.05283,5.13866 -0.58273,-3.58471 -1.25497,-7.65555 -4.49216,-10.20743 z"
       id="path3385"
       inkscape:connector-curvature="0" />
  </g>
</svg>
