<?xml version="1.0" encoding="UTF-8" standalone="no"?>
<!-- Created with Inkscape (http://www.inkscape.org/) -->

<svg
   xmlns:dc="http://purl.org/dc/elements/1.1/"
   xmlns:cc="http://creativecommons.org/ns#"
   xmlns:rdf="http://www.w3.org/1999/02/22-rdf-syntax-ns#"
   xmlns:svg="http://www.w3.org/2000/svg"
   xmlns="http://www.w3.org/2000/svg"
   xmlns:sodipodi="http://sodipodi.sourceforge.net/DTD/sodipodi-0.dtd"
   xmlns:inkscape="http://www.inkscape.org/namespaces/inkscape"
   width="210mm"
   height="210mm"
   viewBox="0 0 744.09449 744.09448"
   id="svg2"
   version="1.1"
   inkscape:version="0.91 r13725"
   sodipodi:docname="yellow-potato.svg">
  <defs
     id="defs4" />
  <sodipodi:namedview
     id="base"
     pagecolor="#ffffff"
     bordercolor="#666666"
     borderopacity="1.0"
     inkscape:pageopacity="0.0"
     inkscape:pageshadow="2"
     inkscape:zoom="1.2865234"
     inkscape:cx="279.42552"
     inkscape:cy="343.00503"
     inkscape:document-units="px"
     inkscape:current-layer="layer1"
     showgrid="false"
     inkscape:window-width="1879"
     inkscape:window-height="1056"
     inkscape:window-x="41"
     inkscape:window-y="24"
     inkscape:window-maximized="1" />
  <metadata
     id="metadata7">
    <rdf:RDF>
      <cc:Work
         rdf:about="">
        <dc:format>image/svg+xml</dc:format>
        <dc:type
           rdf:resource="http://purl.org/dc/dcmitype/StillImage" />
        <dc:title></dc:title>
      </cc:Work>
    </rdf:RDF>
  </metadata>
  <g
     inkscape:label="Layer 1"
     inkscape:groupmode="layer"
     id="layer1"
     transform="translate(0,-308.26772)">
    <path
       style="color:#000000;font-style:normal;font-variant:normal;font-weight:normal;font-stretch:normal;font-size:medium;line-height:normal;font-family:sans-serif;text-indent:0;text-align:start;text-decoration:none;text-decoration-line:none;text-decoration-style:solid;text-decoration-color:#000000;letter-spacing:normal;word-spacing:normal;text-transform:none;direction:ltr;block-progression:tb;writing-mode:lr-tb;baseline-shift:baseline;text-anchor:start;white-space:normal;clip-rule:nonzero;display:inline;overflow:visible;visibility:visible;opacity:1;isolation:auto;mix-blend-mode:normal;color-interpolation:sRGB;color-interpolation-filters:linearRGB;solid-color:#000000;solid-opacity:1;fill:#502d16;fill-opacity:1;fill-rule:evenodd;stroke:none;stroke-width:1;stroke-linecap:butt;stroke-linejoin:miter;stroke-miterlimit:4;stroke-dasharray:none;stroke-dashoffset:0;stroke-opacity:1;color-rendering:auto;image-rendering:auto;shape-rendering:auto;text-rendering:auto;enable-background:accumulate"
       d="m 277.2168,509.26562 c -7.42848,0.29359 -15.21293,-0.6373 -21.9961,1.21883 -6.3544,-0.20987 -12.09571,2.02706 -17.52345,3.20539 -4.41102,1.53056 -10.49951,0.95984 -13.94535,3.34197 -6.25994,1.05164 -12.55461,1.76597 -18.86718,2.92361 -6.47855,-0.0135 -10.42644,3.03452 -16.60548,3.59387 -2.52168,2.2586 -6.97731,2.48638 -9.78916,5.43796 -2.88439,1.96973 -7.20794,3.50175 -9.09955,6.76016 -1.64045,0.87171 -3.76789,2.95044 -4.34361,4.58213 -2.51851,1.67859 -4.57815,4.24087 -6.58977,6.98824 -3.2809,2.28275 -4.96232,6.67428 -8.71623,8.63612 -1.12167,2.16135 -4.20282,3.87512 -6.50565,5.52344 -3.01433,3.65395 -8.04115,4.36268 -10.88098,7.59203 -3.42022,3.03169 -9.49031,6.7855 -13.06791,10.8943 -2.38202,3.22778 -5.10104,4.80139 -7.45325,8.07032 -1.86792,5.34264 -4.93166,9.20944 -6.85765,14.43153 -1.87558,5.76679 -4.71724,10.16788 -6.355463,15.56436 -2.313482,3.76655 -2.661114,8.82923 -5.277346,12.41989 -1.348457,4.54919 -3.53764,9.27857 -4.511724,13.68349 -2.371258,3.75466 -2.700139,8.9546 -4.353509,13.9453 -0.752304,7.07344 -1.390607,14.80421 -0.99809,22.8986 0.74426,7.12152 1.564343,14.09543 1.087862,21.75197 0.791049,13.00826 -1.616877,27.37552 1.292977,39.46865 1.466674,2.98519 2.745151,6.94572 4.060585,10.1426 1.658824,3.06532 2.868316,5.96015 4.640655,9.43358 2.137748,2.33351 3.964153,5.0155 5.437522,7.61322 2.800141,1.58519 4.220771,3.7467 7.482351,6.34368 0.70664,3.88152 2.231,7.09022 4.29298,10.96281 0.38314,2.54724 2.20183,5.74352 4.34965,6.52534 2.7724,4.93718 8.33009,5.87911 12.10369,9.14511 2.0783,0.85793 4.47266,4.17617 5.74394,6.08182 4.90463,2.78243 8.21383,5.75968 12.97844,7.84204 10.56093,3.41141 20.9697,10.36454 31.08391,13.2108 3.51845,1.92786 7.46484,3.93756 10.79692,7.61354 4.05576,1.99389 6.6896,6.25633 11.41187,7.45334 3.6707,4.18618 8.47325,4.09433 11.73238,7.83056 3.15257,0.72335 5.64222,4.13552 9.22456,4.46702 3.33151,4.15483 9.93725,3.43063 13.54283,7.5257 3.47469,0.81246 6.93725,2.11197 10.09389,3.01946 4.3473,2.10643 10.12599,2.68968 13.55466,5.57227 4.10653,0.4594 8.77777,0.79523 11.50407,3.14834 9.50307,-0.10079 19.4886,0.78591 28.35541,-1.08534 8.3317,-0.75228 18.76507,1.62868 25.96484,-0.99421 8.0619,-0.30002 17.26141,0.69069 24.78705,-1.06639 4.46552,-1.59114 8.85793,-2.97792 13.92384,-4.48629 3.41862,-2.54501 7.50248,-3.09819 10.33588,-5.45921 11.91653,-4.19257 26.91209,-1.112 40.15822,-2.15628 5.96566,1.92857 12.73843,1.83343 19.28906,2.17914 5.41343,1.72755 11.81009,1.80857 16.40433,4.59963 8.42829,-0.45376 17.22178,0.69263 24.44336,-2.45873 5.91831,0.8905 9.18222,-3.60774 15.71676,-2.27556 4.84815,-1.76382 11.20804,-2.05268 17.00791,-2.9802 6.56129,-1.55751 12.49107,-1.35884 17.61528,-4.50186 3.5703,-2.0217 8.72189,-0.63104 11.28135,-3.32832 4.51351,-0.11933 7.66073,-2.64086 12.0957,-4.12519 3.30739,-2.73299 8.79066,-4.45594 13.78322,-5.72871 2.28455,-2.81058 7.68239,-3.06044 11.3241,-5.25008 5.93181,-1.7841 10.36537,-4.85598 16.77345,-5.4961 4.33051,-1.76279 9.63569,-4.03088 13.28316,-5.22284 3.47256,-1.96236 6.48405,-4.206 10.82612,-5.78547 3.2596,-3.36715 8.14711,-4.75138 11.15016,-7.32208 4.67354,-2.78328 7.93109,-7.3517 9.8067,-11.98068 2.15309,-2.71444 3.38294,-6.5508 5.14639,-8.97441 1.16552,-3.6128 2.30062,-6.82629 3.55494,-9.51559 2.2752,-3.48609 4.85285,-8.04264 6.463,-11.75577 1.58012,-4.03379 3.90478,-6.80441 4.58416,-10.7441 2.27466,-5.50929 2.26586,-11.72457 4.18983,-17.39453 -1.17988,-5.93913 3.87304,-8.44604 2.16709,-14.48645 1.74484,-4.23888 2.98765,-9.67502 3.11341,-14.93159 3.61047,-8.44154 6.3427,-17.831 5.49993,-28.2558 -0.0307,-6.96263 -2.31974,-12.88987 -3.00423,-19.59765 0.019,-5.32782 -1.90438,-9.17993 -3.61753,-14.05864 0.1017,-5.25376 -1.68567,-10.12033 -3.28327,-13.85153 -0.88075,-5.18598 -3.62186,-9.15531 -6.39661,-13.79093 -3.63267,-4.80583 -7.82112,-10.57837 -11.96495,-15.2261 -1.63173,-2.72695 -3.20924,-6.01011 -5.30881,-7.76558 -1.49002,-3.73565 -6.81959,-6.16649 -7.94735,-10.29293 -6.57837,-4.08672 -8.99266,-12.28854 -14.02206,-17.75571 -2.45893,-4.78719 -9.82436,-7.91043 -14.2203,-11.40416 -2.51616,-0.88296 -5.75599,-2.08354 -7.66195,-4.00395 -5.45926,0.46704 -7.24578,-5.03897 -12.1464,-5.56862 -4.10699,-5.48547 -10.48356,-5.69328 -15.22652,-9.7893 -6.90664,-0.71527 -12.84815,-3.86239 -20.24023,-3.28495 -2.72082,-3.60812 -10.80915,0.22778 -15.07236,-1.05672 -14.91161,-2.7103 -30.93687,-0.34667 -46.28125,-1.20889 -8.61067,2.83274 -19.2756,0.27616 -28.66217,1.12703 -11.03783,0.27201 -21.77886,0.11459 -31.74362,-2.17575 -6.95744,-0.12592 -12.92938,0.0805 -18.97117,-2.1017 -6.72245,-0.11275 -13.02313,-1.23646 -19.39645,-2.24833 -6.67722,-1.80871 -14.99275,-0.74328 -21.44336,-3.30827 -6.96513,-0.40556 -14.11592,-0.51516 -20.38094,-2.13058 -6.26307,0.28961 -10.41915,-2.2068 -16.00005,-3.1894 -5.39739,1.03892 -7.68202,-3.12182 -12.78904,-2.33397 -5.18418,-1.42482 -10.2634,-2.2742 -14.85938,-4.1778 -4.69053,-1.84573 -8.9458,-4.3022 -14.31448,-4.52548 -1.17836,-2.4778 -4.90633,0.24424 -6.76846,-2.16047 z m -0.0391,1.39844 c 4.51115,2.65026 9.93526,1.17976 14.4258,4.34783 3.90616,1.28448 8.84148,3.78906 13.86325,4.25782 3.27302,1.99855 7.74736,1.65737 10.74589,2.93761 5.23323,1.86261 12.08086,1.43549 16.50583,3.81845 3.39547,0.73311 7.94917,0.39536 10.4823,2.12523 7.35868,0.20515 13.67749,0.0214 20.27931,2.12701 8.09378,-0.26124 15.55035,1.76802 23.04101,2.4686 5.3424,2.47455 12.38212,-0.004 17.44922,3.02369 7.20849,0.15599 13.63369,1.76733 21.50396,1.03301 13.05621,4.20162 29.12257,1.401 43.61386,2.21101 8.88868,0.86326 16.35873,-1.91409 25.22014,-1.08787 13.68072,-0.0253 27.41266,-0.34681 40.74119,1.08768 7.29314,-0.39798 13.01275,1.78313 20.12598,2.074 5.45375,2.04686 10.86134,3.13528 15.69918,6.3398 4.41618,1.83747 8.17052,6.04496 12.84569,7.9867 2.97178,3.1492 7.52025,3.72321 10.76561,5.32068 2.49944,1.66252 4.99806,2.6484 7.92773,4.80886 5.94764,2.44192 9.79278,7.69734 13.24249,12.51566 3.29254,4.39065 5.47265,10.41513 9.85168,13.08786 1.52622,3.5274 5.99168,6.45338 7.4319,9.65819 1.67758,2.02408 3.88524,3.91023 5.14868,6.8807 3.88717,5.07581 8.97722,10.18966 12.2542,15.95871 3.74236,3.11657 5.26865,8.56971 7.15069,12.57611 1.5649,3.81968 1.7043,7.84757 3.61759,11.8848 -0.40301,4.72644 1.82105,9.51563 3.27542,12.91204 0.8339,6.39301 0.81015,13.19778 3.22907,19.00195 0.28287,10.50653 0.0148,21.30179 -4.3518,29.82809 -1.70102,4.83037 -1.09301,10.49104 -3.3946,15.12886 -1.32386,4.08424 -0.62316,9.29639 -3.13096,13.15045 -0.13841,5.8569 -1.27025,11.22851 -2.50646,16.60547 -1.67349,5.05343 -2.09735,9.03029 -5.1075,12.75969 -1.62897,5.35099 -4.59686,10.49879 -7.88487,15.0819 -1.1139,2.16742 -1.67344,5.64613 -3.15272,8.38862 -1.7236,3.23201 -2.94319,6.77327 -5.52161,9.94133 -0.66557,4.97632 -6.35923,9.04422 -9.80071,11.91212 -3.4638,1.57755 -7.80099,4.7466 -11.39429,6.57049 -3.3666,2.56068 -6.51889,3.33831 -9.26943,5.39457 -5.59824,2.35849 -12.54371,5.62404 -19.57812,6.40249 -3.16687,2.7971 -8.68211,3.24364 -12.56825,5.545 -4.64502,1.28434 -7.95373,3.40939 -11.87883,4.41019 -4.71448,3.10615 -9.58589,3.02467 -13.19135,6.51784 -4.06761,1.66419 -7.77771,2.37842 -11.15627,4.35938 -4.51449,-0.0892 -8.02023,1.20988 -11.87503,3.24808 -5.68938,1.48581 -12.17438,3.22894 -19.24607,3.27709 -4.40461,2.33994 -9.20701,1.31589 -14.16604,2.1898 -2.36979,2.30011 -9.11625,0.47949 -11.39253,3.24797 -7.50138,-0.0761 -13.633,3.62246 -21.78179,2.1018 -7.86064,1.61499 -12.49483,-4.43404 -20.55412,-3.1898 -5.73749,-2.12745 -12.4493,-1.59479 -18.80274,-2.24751 -10.91505,-2.60994 -23.91852,-0.25339 -35.60937,-1.15218 -4.74717,1.73778 -8.45969,2.83876 -12.74219,4.61924 -2.11267,2.88872 -8.75691,2.98785 -11.24021,5.32836 -5.19674,0.72419 -8.90094,2.57527 -14.1758,3.22109 -7.31024,0.1884 -15.89191,-0.88894 -21.9453,1.03495 -8.54072,0.75082 -18.17486,-1.39385 -26.125,0.87097 -8.39571,0.0132 -19.44956,1.22861 -26.4004,-0.9572 -3.39261,-1.83733 -7.68382,-1.92996 -11.33213,-3.10361 -4.10624,-2.49993 -9.50095,-2.84023 -13.04493,-5.58418 -4.2448,-0.10654 -7.66448,-1.73768 -10.88297,-4.20319 -4.48936,-1.0363 -7.69412,-2.62532 -10.87684,-5.43936 -3.65318,-0.20175 -6.4969,-3.71863 -9.40245,-4.81288 -2.27015,-2.50595 -6.89808,-3.2155 -9.9238,-5.85159 -5.41706,-3.02087 -9.17352,-6.68447 -13.85309,-10.16057 -3.84007,-3.02199 -6.85354,-5.09258 -10.76559,-6.48859 -11.39675,-4.18539 -24.30172,-11.22331 -34.99611,-15.2659 -3.64968,-1.93867 -6.41427,-6.13917 -9.15623,-7.45299 -1.52171,-3.76534 -5.30903,-4.6016 -8.44695,-7.02551 -2.47331,-0.69575 -5.06898,-3.38441 -7.49608,-4.71123 -1.2843,-3.29793 -4.05776,-4.88641 -5.49624,-8.61527 -1.87001,-4.33496 -1.95428,-7.68622 -4.97272,-11.65616 -3.59908,-2.82306 -5.48176,-5.44279 -7.982744,-8.75607 -2.440448,-1.0634 -3.215894,-5.66834 -5.492164,-7.34765 -0.644082,-3.95911 -3.778176,-7.23885 -4.394567,-11.39456 -1.666121,-4.33223 -3.889594,-7.70396 -3.18946,-13.32907 -0.05453,-15.13028 0.103751,-30.29484 -0.07222,-45.40329 -2.747573,-6.51276 -0.03885,-15.48669 -1.06441,-22.86135 2.172655,-3.90977 1.18766,-10.7339 3.193378,-15.25981 2.576469,-3.05568 2.520142,-8.41645 4.728516,-12.66594 2.141465,-5.98029 4.827036,-10.75175 6.353522,-16.65225 2.100307,-3.91139 3.660317,-8.14962 5.336057,-12.33396 2.32159,-6.12813 5.06904,-11.06645 7.88679,-16.69322 2.22887,-3.24437 4.79139,-6.44572 8.23856,-9.31437 3.66977,-5.44693 10.70874,-8.21113 14.58744,-12.86146 4.20513,-1.57239 7.9109,-4.90906 11.41976,-7.61368 4.86455,-1.03753 5.96111,-6.7181 9.88494,-8.89254 2.4792,-3.32225 6.19555,-6.37388 8.03842,-8.89383 1.88327,-2.89396 4.29597,-3.96181 6.23032,-6.51354 2.64428,-3.63632 8.02753,-5.27532 11.11147,-8.40906 4.64642,-1.12504 7.12951,-3.74628 12.248,-4.25769 5.4259,-1.64034 11.55363,-3.75214 18.43362,-3.26185 5.07777,-1.54551 10.63733,-2.36814 15.41212,-3.18005 4.28143,-2.05299 10.07293,-1.53271 13.79098,-3.34981 5.89102,-1.85951 11.47094,-1.42772 17.58598,-3.00204 5.57024,-0.79692 12.04823,0.0804 17.86851,-0.32716 z m 36.06055,10.45508 c 0.0189,0.0844 -0.27549,0.44897 0,0 z m -146.98047,17.99219 c 0.28647,0.012 -0.12805,0.14715 0,0 z"
       id="path3347"
       inkscape:connector-curvature="0" />
    <path
       style="color:#000000;font-style:normal;font-variant:normal;font-weight:normal;font-stretch:normal;font-size:medium;line-height:normal;font-family:sans-serif;text-indent:0;text-align:start;text-decoration:none;text-decoration-line:none;text-decoration-style:solid;text-decoration-color:#000000;letter-spacing:normal;word-spacing:normal;text-transform:none;direction:ltr;block-progression:tb;writing-mode:lr-tb;baseline-shift:baseline;text-anchor:start;white-space:normal;clip-rule:nonzero;display:inline;overflow:visible;visibility:visible;opacity:1;isolation:auto;mix-blend-mode:normal;color-interpolation:sRGB;color-interpolation-filters:linearRGB;solid-color:#000000;solid-opacity:1;fill:#502d16;fill-opacity:1;fill-rule:evenodd;stroke:none;stroke-width:1;stroke-linecap:butt;stroke-linejoin:miter;stroke-miterlimit:4;stroke-dasharray:none;stroke-dashoffset:0;stroke-opacity:1;color-rendering:auto;image-rendering:auto;shape-rendering:auto;text-rendering:auto;enable-background:accumulate"
       d="m 264.18164,720.14453 c -1.87521,2.90393 2.55605,8.3169 2.8497,12.87697 1.79265,5.1329 2.05807,10.88458 2.50815,16.60743 4.19066,11.43891 2.53787,25.27898 5.37656,37.89067 1.42958,3.40859 0.0761,8.72875 2.1938,11.62119 0.89128,5.0001 5.62823,4.6002 3.54296,-1.96886 3.04553,-9.14135 -7.75779,-12.49117 -3.29842,-19.35761 0.58101,-6.85837 -1.66459,-12.63283 -3.332,-18.625 -0.86597,-7.5495 -0.97928,-15.34792 -3.23213,-22.15039 -0.71975,-5.85465 -2.7274,-10.16227 -4.48049,-15.41024 -1.50961,0.30904 -0.42736,-1.93107 -2.12813,-1.48416 z m 1.21484,3.60156 c 1.70602,1.33691 0.42841,1.34257 0,0 z m 0.98633,3.15235 c 2.07596,1.81013 0.16676,1.01266 0,0 z m 2.38086,3.72851 c 0.0891,0.0119 -0.0456,0.0106 0,0 z m -1.16406,0.0274 c 1.9542,2.31924 -0.39794,1.97019 0,0 z m 1.04883,2.90234 c 2.44053,3.18584 -0.62763,2.0791 0,0 z m 1.20508,4.42188 c 2.51019,4.4111 -1.52535,7.34185 0,0 z m 1.09765,6.55273 c 3.0077,2.27144 -1.89284,10.159 0,0 z m 0.98242,8.7832 c 2.39073,3.09006 -0.66936,1.85019 0,0 z m 1.10547,7.43946 c 2.0266,1.29211 0.0967,5.56385 0,0 z m 1.11328,4.3789 c 2.76066,4.21929 1.96221,22.17883 -0.0467,6.85352 l 0.0215,-2.00586 0.0254,-4.84766 -1.5e-4,0 z m -0.30859,18.09375 c 0.0135,0.0133 0.008,0.0647 0,0 z m 1.83789,1.58985 c 3.90864,1.52303 4.21181,12.58168 2.76329,14.7364 -1.73983,-4.24103 -0.77151,-9.97097 -2.76329,-14.7364 z"
       id="path3349"
       inkscape:connector-curvature="0" />
    <path
       style="color:#000000;font-style:normal;font-variant:normal;font-weight:normal;font-stretch:normal;font-size:medium;line-height:normal;font-family:sans-serif;text-indent:0;text-align:start;text-decoration:none;text-decoration-line:none;text-decoration-style:solid;text-decoration-color:#000000;letter-spacing:normal;word-spacing:normal;text-transform:none;direction:ltr;block-progression:tb;writing-mode:lr-tb;baseline-shift:baseline;text-anchor:start;white-space:normal;clip-rule:nonzero;display:inline;overflow:visible;visibility:visible;opacity:1;isolation:auto;mix-blend-mode:normal;color-interpolation:sRGB;color-interpolation-filters:linearRGB;solid-color:#000000;solid-opacity:1;fill:#552200;fill-opacity:1;fill-rule:evenodd;stroke:none;stroke-width:1;stroke-linecap:butt;stroke-linejoin:miter;stroke-miterlimit:4;stroke-dasharray:none;stroke-dashoffset:0;stroke-opacity:1;color-rendering:auto;image-rendering:auto;shape-rendering:auto;text-rendering:auto;enable-background:accumulate"
       d="m 347.38672,551.75391 c -4.38304,3.19864 -5.84149,23.87587 -3.66055,18.99609 5.76733,7.58513 11.07373,16.17529 15.77346,23.49224 3.17876,5.66783 7.91586,12.18555 10.10185,17.2559 4.04897,8.9595 4.43809,-4.0568 6.81987,-7.44336 0.49443,-6.94819 -0.12231,-13.50538 -3.33576,-18.82614 -1.66991,-4.61881 -3.0977,-8.3416 -5.33596,-11.79089 -1.20482,-2.68387 -3.80614,-7.09808 -6.24642,-9.02332 -2.8917,-3.25506 -6.05085,-6.06484 -8.52337,-7.78327 -1.52824,-2.31306 -3.3377,-3.5167 -5.59312,-4.87725 z m -0.10352,1.42578 c 2.87837,1.91759 3.45259,5.25158 7.00395,6.19158 1.357,2.50337 4.18234,3.53036 6.52736,6.52545 2.34726,2.49607 4.7877,6.09219 6.4512,9.07803 1.51305,3.94804 4.40063,8.46237 5.5977,13.6834 3.51768,5.05777 2.72512,13.703 0.75606,19.24416 -1.45621,7.96222 -1.31586,4.13414 -4.60955,-3e-5 -3.43163,-8.22462 -9.65801,-15.02222 -13.59397,-23.53514 -3.96616,-6.42452 -15.8196,-15.79345 -9.57999,-25.07616 -0.42637,-2.39808 1.66054,-3.87655 1.44724,-6.11129 z"
       id="path3351"
       inkscape:connector-curvature="0" />
    <path
       style="color:#000000;font-style:normal;font-variant:normal;font-weight:normal;font-stretch:normal;font-size:medium;line-height:normal;font-family:sans-serif;text-indent:0;text-align:start;text-decoration:none;text-decoration-line:none;text-decoration-style:solid;text-decoration-color:#000000;letter-spacing:normal;word-spacing:normal;text-transform:none;direction:ltr;block-progression:tb;writing-mode:lr-tb;baseline-shift:baseline;text-anchor:start;white-space:normal;clip-rule:nonzero;display:inline;overflow:visible;visibility:visible;opacity:1;isolation:auto;mix-blend-mode:normal;color-interpolation:sRGB;color-interpolation-filters:linearRGB;solid-color:#000000;solid-opacity:1;fill:#502d16;fill-opacity:1;fill-rule:evenodd;stroke:none;stroke-width:1;stroke-linecap:butt;stroke-linejoin:miter;stroke-miterlimit:4;stroke-dasharray:none;stroke-dashoffset:0;stroke-opacity:1;color-rendering:auto;image-rendering:auto;shape-rendering:auto;text-rendering:auto;enable-background:accumulate"
       d="m 529.63867,808.34961 c -2.52421,4.02351 -1.86402,12.8991 -0.0236,17.59567 2.11901,2.84347 3.21505,7.67624 6.54887,10.08016 6.57412,0.87477 2.06588,-8.9113 3.27121,-13.0646 -1.51466,-11.93902 -4.52293,-10.64083 -1.25998,0.76759 0.16805,3.49681 0.7618,16.04098 -3.55861,7.96459 -2.34739,-3.97768 -5.11059,-7.41873 -4.89673,-12.76952 -0.28435,-3.54374 0.43,-8.44825 -0.0812,-10.57389 z"
       id="path3353"
       inkscape:connector-curvature="0" />
    <path
       style="color:#000000;font-style:normal;font-variant:normal;font-weight:normal;font-stretch:normal;font-size:medium;line-height:normal;font-family:sans-serif;text-indent:0;text-align:start;text-decoration:none;text-decoration-line:none;text-decoration-style:solid;text-decoration-color:#000000;letter-spacing:normal;word-spacing:normal;text-transform:none;direction:ltr;block-progression:tb;writing-mode:lr-tb;baseline-shift:baseline;text-anchor:start;white-space:normal;clip-rule:nonzero;display:inline;overflow:visible;visibility:visible;opacity:1;isolation:auto;mix-blend-mode:normal;color-interpolation:sRGB;color-interpolation-filters:linearRGB;solid-color:#000000;solid-opacity:1;fill:#502d16;fill-opacity:1;fill-rule:evenodd;stroke:none;stroke-width:1;stroke-linecap:butt;stroke-linejoin:miter;stroke-miterlimit:4;stroke-dasharray:none;stroke-dashoffset:0;stroke-opacity:1;color-rendering:auto;image-rendering:auto;shape-rendering:auto;text-rendering:auto;enable-background:accumulate"
       d="m 543.54883,588.3457 c 3.87432,9.29481 -15.87588,1.25405 -17.22849,10.26172 -3.99283,4.66426 0.60503,9.99336 6.25918,7.83976 8.5722,-1.04659 20.26137,2.35589 26.59422,-2.40624 -0.9531,-6.1017 -4.45653,-9.3191 -8.28513,-10.94753 -6.13372,2.72961 -4.57678,-4.59803 -7.33978,-4.74771 z m 7.10937,6.12696 c 1.89604,1.71323 11.72659,8.30328 4.44545,10.35938 -8.85318,0.41587 -18.73626,0.21545 -27.48834,0.12888 -4.35098,-4.99153 3.90832,-11.44983 9.60817,-10.47848 4.47737,-0.12929 8.98945,0.19592 13.43472,-0.01 z"
       id="path3355"
       inkscape:connector-curvature="0" />
    <path
       style="color:#000000;font-style:normal;font-variant:normal;font-weight:normal;font-stretch:normal;font-size:medium;line-height:normal;font-family:sans-serif;text-indent:0;text-align:start;text-decoration:none;text-decoration-line:none;text-decoration-style:solid;text-decoration-color:#000000;letter-spacing:normal;word-spacing:normal;text-transform:none;direction:ltr;block-progression:tb;writing-mode:lr-tb;baseline-shift:baseline;text-anchor:start;white-space:normal;clip-rule:nonzero;display:inline;overflow:visible;visibility:visible;opacity:1;isolation:auto;mix-blend-mode:normal;color-interpolation:sRGB;color-interpolation-filters:linearRGB;solid-color:#000000;solid-opacity:1;fill:#502d16;fill-opacity:1;fill-rule:evenodd;stroke:none;stroke-width:1;stroke-linecap:butt;stroke-linejoin:miter;stroke-miterlimit:4;stroke-dasharray:none;stroke-dashoffset:0;stroke-opacity:1;color-rendering:auto;image-rendering:auto;shape-rendering:auto;text-rendering:auto;enable-background:accumulate"
       d="m 455.53125,614.75 c -5.48306,0.8644 -7.11822,7.51566 -8.86921,11.0449 2.89873,6.09584 23.24311,7.08428 13.22067,6.27154 -2.67409,-5.02723 1.53781,-14.30949 -2.85923,-16.79508 -0.73743,0.98677 0.13718,-2.10491 -1.49223,-0.52136 z m -1.24414,1.41211 c 4.72309,1.51814 5.95133,20.60576 -1.08785,11.79905 -7.36884,-0.97738 -4.15181,-5.0762 -1.4472,-9.29311 0.81454,-0.86523 1.66471,-1.69774 2.53505,-2.50594 z"
       id="path3357"
       inkscape:connector-curvature="0" />
    <path
       style="color:#000000;font-style:normal;font-variant:normal;font-weight:normal;font-stretch:normal;font-size:medium;line-height:normal;font-family:sans-serif;text-indent:0;text-align:start;text-decoration:none;text-decoration-line:none;text-decoration-style:solid;text-decoration-color:#000000;letter-spacing:normal;word-spacing:normal;text-transform:none;direction:ltr;block-progression:tb;writing-mode:lr-tb;baseline-shift:baseline;text-anchor:start;white-space:normal;clip-rule:nonzero;display:inline;overflow:visible;visibility:visible;opacity:1;isolation:auto;mix-blend-mode:normal;color-interpolation:sRGB;color-interpolation-filters:linearRGB;solid-color:#000000;solid-opacity:1;fill:#502d16;fill-opacity:1;fill-rule:evenodd;stroke:none;stroke-width:1;stroke-linecap:butt;stroke-linejoin:miter;stroke-miterlimit:4;stroke-dasharray:none;stroke-dashoffset:0;stroke-opacity:1;color-rendering:auto;image-rendering:auto;shape-rendering:auto;text-rendering:auto;enable-background:accumulate"
       d="m 452.27344,608.49609 c -1.07486,8.90992 14.528,2.7266 4.28177,0.51378 1.75464,2.85781 1.29197,2.50601 -4.28177,-0.51378 z"
       id="path3359"
       inkscape:connector-curvature="0" />
    <path
       style="color:#000000;font-style:normal;font-variant:normal;font-weight:normal;font-stretch:normal;font-size:medium;line-height:normal;font-family:sans-serif;text-indent:0;text-align:start;text-decoration:none;text-decoration-line:none;text-decoration-style:solid;text-decoration-color:#000000;letter-spacing:normal;word-spacing:normal;text-transform:none;direction:ltr;block-progression:tb;writing-mode:lr-tb;baseline-shift:baseline;text-anchor:start;white-space:normal;clip-rule:nonzero;display:inline;overflow:visible;visibility:visible;opacity:1;isolation:auto;mix-blend-mode:normal;color-interpolation:sRGB;color-interpolation-filters:linearRGB;solid-color:#000000;solid-opacity:1;fill:#502d16;fill-opacity:1;fill-rule:evenodd;stroke:none;stroke-width:1;stroke-linecap:butt;stroke-linejoin:miter;stroke-miterlimit:4;stroke-dasharray:none;stroke-dashoffset:0;stroke-opacity:1;color-rendering:auto;image-rendering:auto;shape-rendering:auto;text-rendering:auto;enable-background:accumulate"
       d="m 479.37891,602.48438 c -3.1813,0.51031 -15.7212,-0.8413 -10.64632,5.13663 3.27443,-1.70461 13.44766,3.29828 12.05692,-3.32214 12.65724,2.05521 3.45148,-2.00083 -1.4106,-1.81449 z m -9.43946,1.73437 c 11.43976,-1.16204 10.98288,3.49138 -0.331,1.91617 -2.75889,-0.0212 0.87003,-0.98461 0.331,-1.91617 z"
       id="path3361"
       inkscape:connector-curvature="0" />
    <path
       style="color:#000000;font-style:normal;font-variant:normal;font-weight:normal;font-stretch:normal;font-size:medium;line-height:normal;font-family:sans-serif;text-indent:0;text-align:start;text-decoration:none;text-decoration-line:none;text-decoration-style:solid;text-decoration-color:#000000;letter-spacing:normal;word-spacing:normal;text-transform:none;direction:ltr;block-progression:tb;writing-mode:lr-tb;baseline-shift:baseline;text-anchor:start;white-space:normal;clip-rule:nonzero;display:inline;overflow:visible;visibility:visible;opacity:1;isolation:auto;mix-blend-mode:normal;color-interpolation:sRGB;color-interpolation-filters:linearRGB;solid-color:#000000;solid-opacity:1;fill:#502d16;fill-opacity:1;fill-rule:evenodd;stroke:none;stroke-width:1;stroke-linecap:butt;stroke-linejoin:miter;stroke-miterlimit:4;stroke-dasharray:none;stroke-dashoffset:0;stroke-opacity:1;color-rendering:auto;image-rendering:auto;shape-rendering:auto;text-rendering:auto;enable-background:accumulate"
       d="m 568.56445,677.53125 c 0.85177,2.13808 2.62048,4.4835 3.13279,7.52954 6.19835,-3.26096 2.45509,15.44457 14.19335,12.67383 0.12826,-3.12511 -2.22902,-5.94004 -4.03728,-8.55255 -3.61939,-6.82772 -9.597,-3.2334 -10.71684,-10.32424 -0.12807,-1.26649 -1.62247,-1.54246 -2.57202,-1.32658 z m 1.17774,1.32422 c 0.29466,-0.0742 -0.0152,0.15466 0,0 z m 6.87304,7.93945 c 3.96641,2.9326 7.36764,6.71207 7.47835,10.12675 -2.63985,-1.76475 -10.89355,-5.82775 -7.47835,-10.12675 z"
       id="path3363"
       inkscape:connector-curvature="0" />
    <path
       style="color:#000000;font-style:normal;font-variant:normal;font-weight:normal;font-stretch:normal;font-size:medium;line-height:normal;font-family:sans-serif;text-indent:0;text-align:start;text-decoration:none;text-decoration-line:none;text-decoration-style:solid;text-decoration-color:#000000;letter-spacing:normal;word-spacing:normal;text-transform:none;direction:ltr;block-progression:tb;writing-mode:lr-tb;baseline-shift:baseline;text-anchor:start;white-space:normal;clip-rule:nonzero;display:inline;overflow:visible;visibility:visible;opacity:1;isolation:auto;mix-blend-mode:normal;color-interpolation:sRGB;color-interpolation-filters:linearRGB;solid-color:#000000;solid-opacity:1;fill:#502d16;fill-opacity:1;fill-rule:evenodd;stroke:none;stroke-width:1;stroke-linecap:butt;stroke-linejoin:miter;stroke-miterlimit:4;stroke-dasharray:none;stroke-dashoffset:0;stroke-opacity:1;color-rendering:auto;image-rendering:auto;shape-rendering:auto;text-rendering:auto;enable-background:accumulate"
       d="m 626.74023,722.33594 c -2.43604,3.87464 -7.87697,4.6337 -9.18938,8.19542 -2.47897,0.99561 -2.902,5.54353 -3.39283,8.22661 -3.21539,2.09587 -1.21738,10.21423 2.94081,9.3397 4.448,3.15612 12.90241,3.04536 15.64642,-1.36156 5.73375,-2.77071 5.01269,-11.97998 4.56174,-18.42571 -3.04806,-2.08504 -5.84558,-5.48347 -10.56676,-5.97446 z m 1.0293,1.54492 c 8.23499,2.27401 9.818,8.23884 8.26369,16.51192 -1.62772,3.58068 -3.88321,6.36405 -7.4434,7.3398 -3.21922,2.89625 -9.79491,-0.0244 -12.87498,-1.37856 -3.33002,-3.71927 0.80047,-8.60611 0.84761,-12.88477 1.88382,-0.0803 1.76356,-4.21663 4.13258,-4.19418 2.90542,-1.18675 3.98082,-5.25219 7.0745,-5.39421 z m -8.95898,6.0918 c 0.0208,0.16006 -0.29692,-0.0783 0,0 z m -1.1836,0.5625 c 0.28315,0.0131 -0.12894,0.14481 0,0 z"
       id="path3365"
       inkscape:connector-curvature="0" />
    <path
       style="color:#000000;font-style:normal;font-variant:normal;font-weight:normal;font-stretch:normal;font-size:medium;line-height:normal;font-family:sans-serif;text-indent:0;text-align:start;text-decoration:none;text-decoration-line:none;text-decoration-style:solid;text-decoration-color:#000000;letter-spacing:normal;word-spacing:normal;text-transform:none;direction:ltr;block-progression:tb;writing-mode:lr-tb;baseline-shift:baseline;text-anchor:start;white-space:normal;clip-rule:nonzero;display:inline;overflow:visible;visibility:visible;opacity:1;isolation:auto;mix-blend-mode:normal;color-interpolation:sRGB;color-interpolation-filters:linearRGB;solid-color:#000000;solid-opacity:1;fill:#502d16;fill-opacity:1;fill-rule:evenodd;stroke:none;stroke-width:1;stroke-linecap:butt;stroke-linejoin:miter;stroke-miterlimit:4;stroke-dasharray:none;stroke-dashoffset:0;stroke-opacity:1;color-rendering:auto;image-rendering:auto;shape-rendering:auto;text-rendering:auto;enable-background:accumulate"
       d="m 240.09766,616.62305 c -10.26085,-3.07914 -1.8493,12.00496 -8.95112,4.75192 -4.529,1.22661 -8.88694,12.73571 -3.84572,11.63285 3.23875,-1.47504 4.20218,-6.55855 8.55454,-8.27525 -2.99449,-4.86616 -0.12555,-6.20978 5.03132,-6.32663 1.15763,-0.14618 0.97842,-3.1548 -0.78902,-1.78289 z m -9.10938,6.20898 c 4.9445,2.2738 -3.15251,6.39384 -3.96473,7.87118 -2.54607,2.19766 2.12416,-7.58272 3.96473,-7.87118 z"
       id="path3367"
       inkscape:connector-curvature="0" />
    <path
       style="color:#000000;font-style:normal;font-variant:normal;font-weight:normal;font-stretch:normal;font-size:medium;line-height:normal;font-family:sans-serif;text-indent:0;text-align:start;text-decoration:none;text-decoration-line:none;text-decoration-style:solid;text-decoration-color:#000000;letter-spacing:normal;word-spacing:normal;text-transform:none;direction:ltr;block-progression:tb;writing-mode:lr-tb;baseline-shift:baseline;text-anchor:start;white-space:normal;clip-rule:nonzero;display:inline;overflow:visible;visibility:visible;opacity:1;isolation:auto;mix-blend-mode:normal;color-interpolation:sRGB;color-interpolation-filters:linearRGB;solid-color:#000000;solid-opacity:1;fill:#502d16;fill-opacity:1;fill-rule:evenodd;stroke:none;stroke-width:1;stroke-linecap:butt;stroke-linejoin:miter;stroke-miterlimit:4;stroke-dasharray:none;stroke-dashoffset:0;stroke-opacity:1;color-rendering:auto;image-rendering:auto;shape-rendering:auto;text-rendering:auto;enable-background:accumulate"
       d="m 179.23633,634.86523 c -1.1956,10.32335 -4.41159,3.34245 -1.22069,11.59365 3.32725,6.30571 1.78243,-12.52663 1.22069,-11.59365 z"
       id="path3369"
       inkscape:connector-curvature="0" />
    <path
       style="color:#000000;font-style:normal;font-variant:normal;font-weight:normal;font-stretch:normal;font-size:medium;line-height:normal;font-family:sans-serif;text-indent:0;text-align:start;text-decoration:none;text-decoration-line:none;text-decoration-style:solid;text-decoration-color:#000000;letter-spacing:normal;word-spacing:normal;text-transform:none;direction:ltr;block-progression:tb;writing-mode:lr-tb;baseline-shift:baseline;text-anchor:start;white-space:normal;clip-rule:nonzero;display:inline;overflow:visible;visibility:visible;opacity:1;isolation:auto;mix-blend-mode:normal;color-interpolation:sRGB;color-interpolation-filters:linearRGB;solid-color:#000000;solid-opacity:1;fill:#502d16;fill-opacity:1;fill-rule:evenodd;stroke:none;stroke-width:1;stroke-linecap:butt;stroke-linejoin:miter;stroke-miterlimit:4;stroke-dasharray:none;stroke-dashoffset:0;stroke-opacity:1;color-rendering:auto;image-rendering:auto;shape-rendering:auto;text-rendering:auto;enable-background:accumulate"
       d="m 177.09766,609.31055 c -4.65243,-0.197 -16.90474,10.82005 -11.71136,9.95717 1.22485,-3.02545 13.25901,-13.60921 11.62918,-4.52382 3.85931,6.51629 -14.2026,5.85311 -5.05674,5.92817 8.81627,3.59021 6.39359,-5.87162 6.35709,-10.93214 l -0.10743,-0.13671 -1.11132,-0.29297 5.8e-4,3e-4 z"
       id="path3371"
       inkscape:connector-curvature="0" />
    <path
       style="color:#000000;font-style:normal;font-variant:normal;font-weight:normal;font-stretch:normal;font-size:medium;line-height:normal;font-family:sans-serif;text-indent:0;text-align:start;text-decoration:none;text-decoration-line:none;text-decoration-style:solid;text-decoration-color:#000000;letter-spacing:normal;word-spacing:normal;text-transform:none;direction:ltr;block-progression:tb;writing-mode:lr-tb;baseline-shift:baseline;text-anchor:start;white-space:normal;clip-rule:nonzero;display:inline;overflow:visible;visibility:visible;opacity:1;isolation:auto;mix-blend-mode:normal;color-interpolation:sRGB;color-interpolation-filters:linearRGB;solid-color:#000000;solid-opacity:1;fill:#502d16;fill-opacity:1;fill-rule:evenodd;stroke:none;stroke-width:1;stroke-linecap:butt;stroke-linejoin:miter;stroke-miterlimit:4;stroke-dasharray:none;stroke-dashoffset:0;stroke-opacity:1;color-rendering:auto;image-rendering:auto;shape-rendering:auto;text-rendering:auto;enable-background:accumulate"
       d="m 164.25391,605.57812 c -4.36908,3.34635 4.79535,9.65405 0,0 z"
       id="path3373"
       inkscape:connector-curvature="0" />
    <path
       style="color:#000000;font-style:normal;font-variant:normal;font-weight:normal;font-stretch:normal;font-size:medium;line-height:normal;font-family:sans-serif;text-indent:0;text-align:start;text-decoration:none;text-decoration-line:none;text-decoration-style:solid;text-decoration-color:#000000;letter-spacing:normal;word-spacing:normal;text-transform:none;direction:ltr;block-progression:tb;writing-mode:lr-tb;baseline-shift:baseline;text-anchor:start;white-space:normal;clip-rule:nonzero;display:inline;overflow:visible;visibility:visible;opacity:1;isolation:auto;mix-blend-mode:normal;color-interpolation:sRGB;color-interpolation-filters:linearRGB;solid-color:#000000;solid-opacity:1;fill:#502d16;fill-opacity:1;fill-rule:evenodd;stroke:none;stroke-width:1;stroke-linecap:butt;stroke-linejoin:miter;stroke-miterlimit:4;stroke-dasharray:none;stroke-dashoffset:0;stroke-opacity:1;color-rendering:auto;image-rendering:auto;shape-rendering:auto;text-rendering:auto;enable-background:accumulate"
       d="m 156.58008,701.75977 c -4.65675,7.40249 -0.7822,14.15067 -0.0117,1.64648 2.28748,2.67034 4.94175,6.50536 2.17778,-0.50191 0.61976,-1.54035 -1.46148,-0.93569 -2.16607,-1.14457 z m 1.0625,0.29296 c -0.26877,0.60653 -0.13101,0.10769 0,0 z"
       id="path3375"
       inkscape:connector-curvature="0" />
    <path
       style="color:#000000;font-style:normal;font-variant:normal;font-weight:normal;font-stretch:normal;font-size:medium;line-height:normal;font-family:sans-serif;text-indent:0;text-align:start;text-decoration:none;text-decoration-line:none;text-decoration-style:solid;text-decoration-color:#000000;letter-spacing:normal;word-spacing:normal;text-transform:none;direction:ltr;block-progression:tb;writing-mode:lr-tb;baseline-shift:baseline;text-anchor:start;white-space:normal;clip-rule:nonzero;display:inline;overflow:visible;visibility:visible;opacity:1;isolation:auto;mix-blend-mode:normal;color-interpolation:sRGB;color-interpolation-filters:linearRGB;solid-color:#000000;solid-opacity:1;fill:#502d16;fill-opacity:1;fill-rule:evenodd;stroke:none;stroke-width:1;stroke-linecap:butt;stroke-linejoin:miter;stroke-miterlimit:4;stroke-dasharray:none;stroke-dashoffset:0;stroke-opacity:1;color-rendering:auto;image-rendering:auto;shape-rendering:auto;text-rendering:auto;enable-background:accumulate"
       d="m 188.1543,684.88672 c 0.25256,4.97914 -3.05523,7.79368 -1.27535,10.35962 4.41464,8.63476 2.05947,-8.73123 1.27535,-10.35962 z m -1.25977,9.19531 c 0.29466,-0.0743 -0.0153,0.15494 0,0 z"
       id="path3377"
       inkscape:connector-curvature="0" />
    <path
       style="color:#000000;font-style:normal;font-variant:normal;font-weight:normal;font-stretch:normal;font-size:medium;line-height:normal;font-family:sans-serif;text-indent:0;text-align:start;text-decoration:none;text-decoration-line:none;text-decoration-style:solid;text-decoration-color:#000000;letter-spacing:normal;word-spacing:normal;text-transform:none;direction:ltr;block-progression:tb;writing-mode:lr-tb;baseline-shift:baseline;text-anchor:start;white-space:normal;clip-rule:nonzero;display:inline;overflow:visible;visibility:visible;opacity:1;isolation:auto;mix-blend-mode:normal;color-interpolation:sRGB;color-interpolation-filters:linearRGB;solid-color:#000000;solid-opacity:1;fill:#502d16;fill-opacity:1;fill-rule:evenodd;stroke:none;stroke-width:1;stroke-linecap:butt;stroke-linejoin:miter;stroke-miterlimit:4;stroke-dasharray:none;stroke-dashoffset:0;stroke-opacity:1;color-rendering:auto;image-rendering:auto;shape-rendering:auto;text-rendering:auto;enable-background:accumulate"
       d="m 306.47461,672.97656 c 1.92209,3.78071 9.74968,11.61068 3.43745,16.02344 -1.30569,0.14637 -4.41816,-6.57516 -2.48438,0.88262 5.03761,4.79797 8.10533,-6.99793 4.75213,-10.5742 -0.8599,-2.60316 -4.52908,-4.35279 -5.7052,-6.33186 z"
       id="path3379"
       inkscape:connector-curvature="0" />
    <path
       style="color:#000000;font-style:normal;font-variant:normal;font-weight:normal;font-stretch:normal;font-size:medium;line-height:normal;font-family:sans-serif;text-indent:0;text-align:start;text-decoration:none;text-decoration-line:none;text-decoration-style:solid;text-decoration-color:#000000;letter-spacing:normal;word-spacing:normal;text-transform:none;direction:ltr;block-progression:tb;writing-mode:lr-tb;baseline-shift:baseline;text-anchor:start;white-space:normal;clip-rule:nonzero;display:inline;overflow:visible;visibility:visible;opacity:1;isolation:auto;mix-blend-mode:normal;color-interpolation:sRGB;color-interpolation-filters:linearRGB;solid-color:#000000;solid-opacity:1;fill:#502d16;fill-opacity:1;fill-rule:evenodd;stroke:none;stroke-width:1;stroke-linecap:butt;stroke-linejoin:miter;stroke-miterlimit:4;stroke-dasharray:none;stroke-dashoffset:0;stroke-opacity:1;color-rendering:auto;image-rendering:auto;shape-rendering:auto;text-rendering:auto;enable-background:accumulate"
       d="m 368.65234,781.01367 c -5.35004,6.01619 6.19918,12.56883 10.75781,14.73845 9.08826,-4.00337 -3.7467,-20.55717 2.07985,-5.10742 -0.81542,9.98801 -15.93926,-4.87505 -11.84377,-8.15061 0.57399,-0.62514 -0.23929,-1.68192 -0.99389,-1.48042 z"
       id="path3381"
       inkscape:connector-curvature="0" />
    <path
       style="color:#000000;font-style:normal;font-variant:normal;font-weight:normal;font-stretch:normal;font-size:medium;line-height:normal;font-family:sans-serif;text-indent:0;text-align:start;text-decoration:none;text-decoration-line:none;text-decoration-style:solid;text-decoration-color:#000000;letter-spacing:normal;word-spacing:normal;text-transform:none;direction:ltr;block-progression:tb;writing-mode:lr-tb;baseline-shift:baseline;text-anchor:start;white-space:normal;clip-rule:nonzero;display:inline;overflow:visible;visibility:visible;opacity:1;isolation:auto;mix-blend-mode:normal;color-interpolation:sRGB;color-interpolation-filters:linearRGB;solid-color:#000000;solid-opacity:1;fill:#502d16;fill-opacity:1;fill-rule:evenodd;stroke:none;stroke-width:1;stroke-linecap:butt;stroke-linejoin:miter;stroke-miterlimit:4;stroke-dasharray:none;stroke-dashoffset:0;stroke-opacity:1;color-rendering:auto;image-rendering:auto;shape-rendering:auto;text-rendering:auto;enable-background:accumulate"
       d="m 359.83398,738.8125 c -2.74233,1.28982 -3.2696,5.57102 -4.44528,8.32852 1.66181,7.23669 0.80019,-4.69169 4.5877,-6.21289 6.72546,-4.22145 5.97147,5.57694 3.01186,7.99621 -10.11084,10.3736 2.16455,1.80292 3.67417,-3.48826 1.16395,-5.46127 -1.4002,-7.50378 -6.82845,-6.62358 z"
       id="path3383"
       inkscape:connector-curvature="0" />
    <path
       style="color:#000000;font-style:normal;font-variant:normal;font-weight:normal;font-stretch:normal;font-size:medium;line-height:normal;font-family:sans-serif;text-indent:0;text-align:start;text-decoration:none;text-decoration-line:none;text-decoration-style:solid;text-decoration-color:#000000;letter-spacing:normal;word-spacing:normal;text-transform:none;direction:ltr;block-progression:tb;writing-mode:lr-tb;baseline-shift:baseline;text-anchor:start;white-space:normal;clip-rule:nonzero;display:inline;overflow:visible;visibility:visible;opacity:1;isolation:auto;mix-blend-mode:normal;color-interpolation:sRGB;color-interpolation-filters:linearRGB;solid-color:#000000;solid-opacity:1;fill:#502d16;fill-opacity:1;fill-rule:evenodd;stroke:none;stroke-width:1;stroke-linecap:butt;stroke-linejoin:miter;stroke-miterlimit:4;stroke-dasharray:none;stroke-dashoffset:0;stroke-opacity:1;color-rendering:auto;image-rendering:auto;shape-rendering:auto;text-rendering:auto;enable-background:accumulate"
       d="m 446.91992,705.39062 c 0.11343,2.70463 7.99295,16.81276 -2.09591,8.48244 0.69729,-3.74674 -5.341,-5.85305 -2.46476,-3.41367 -0.96949,4.10223 9.10867,11.01065 9.05283,5.13866 -0.58273,-3.58471 -1.25497,-7.65555 -4.49216,-10.20743 z"
       id="path3385"
       inkscape:connector-curvature="0" />
    <path
       style="fill:#552200;stroke:#000000;stroke-width:1.24366176;stroke-miterlimit:4;stroke-dasharray:none;stroke-opacity:1"
       d="m 368.06215,296.88993 c -7.23729,-12.70345 -12.46572,-21.05871 -16.27944,-26.01525 -2.04743,-2.66097 -4.50961,-6.30123 -5.4715,-8.08946 -2.45986,-4.57305 -2.34172,-6.48878 0.99089,-16.06801 0.23299,-0.6697 1.36914,-0.0109 3.3512,1.94322 1.64929,1.62604 5.2809,5.13961 8.07024,7.80794 5.59687,5.35405 8.98292,11.08231 13.41302,22.69117 3.12036,8.17673 3.37269,11.82151 1.36199,19.67361 l -1.3425,5.2427 -4.0939,-7.18592 z"
       id="path4266"
       inkscape:connector-curvature="0"
       transform="translate(0,308.26772)" />
    <path
       style="fill:#552200;stroke:#000000;stroke-width:1.24366176;stroke-miterlimit:4;stroke-dasharray:none;stroke-opacity:1"
       d="m 455.38521,321.2801 c -0.31166,-0.50428 -1.82638,-1.51916 -3.36604,-2.25529 -1.53966,-0.73613 -2.9162,-1.70063 -3.05899,-2.14333 -0.33948,-1.05252 4.15699,-8.13391 5.16478,-8.13391 2.53973,0 4.83373,9.39511 2.92305,11.9714 -0.77594,1.04626 -1.26167,1.21018 -1.6628,0.56113 z"
       id="path4268"
       inkscape:connector-curvature="0"
       transform="translate(0,308.26772)" />
    <path
       style="fill:#552200;stroke:#000000;stroke-width:1.24366176;stroke-miterlimit:4;stroke-dasharray:none;stroke-opacity:1"
       d="m 476.52897,298.46165 c 2.6861,-1.29426 1.64875,-2.48743 -2.60839,-3.00019 -3.11521,-0.37522 -2.59849,-0.47339 2.78079,-0.52834 3.63382,-0.0371 7.30651,0.26147 8.16153,0.66353 1.15665,0.54389 0.80847,0.62037 -1.36026,0.29879 -2.51438,-0.37284 -2.91483,-0.22523 -2.91483,1.07442 0,1.62889 -1.47293,2.48103 -4.14434,2.39764 -1.68167,-0.0525 -1.68148,-0.0545 0.0855,-0.90585 z"
       id="path4270"
       inkscape:connector-curvature="0"
       transform="translate(0,308.26772)" />
    <path
       style="fill:#552200;stroke:#000000;stroke-width:1.24366176;stroke-miterlimit:4;stroke-dasharray:none;stroke-opacity:1"
       d="m 472.81493,298.64282 c 0,-0.42751 0.37042,-0.77729 0.82316,-0.77729 0.45274,0 0.60698,0.34978 0.34277,0.77729 -0.26422,0.42751 -0.63464,0.77729 -0.82316,0.77729 -0.18853,0 -0.34277,-0.34978 -0.34277,-0.77729 z"
       id="path4272"
       inkscape:connector-curvature="0"
       transform="translate(0,308.26772)" />
    <path
       style="fill:#552200;stroke:#000000;stroke-width:1.24366176;stroke-miterlimit:4;stroke-dasharray:none;stroke-opacity:1"
       d="m 470.09441,297.08824 c 0.26422,-0.42751 1.59654,-0.74242 2.96071,-0.69981 2.36869,0.074 2.39286,0.10549 0.53709,0.69981 -2.79109,0.89387 -4.05023,0.89387 -3.4978,0 z"
       id="path4274"
       inkscape:connector-curvature="0"
       transform="translate(0,308.26772)" />
    <path
       style="fill:#552200;stroke:#000000;stroke-width:1.24366176;stroke-miterlimit:4;stroke-dasharray:none;stroke-opacity:1"
       d="m 526.91433,295.06761 c -0.66026,-1.72063 1.04888,-4.90733 3.67297,-6.84828 1.91776,-1.41849 3.29763,-1.62545 10.88204,-1.63214 8.35868,-0.007 8.79607,0.076 11.61384,2.21332 3.72054,2.8221 4.89253,4.88219 3.63768,6.3942 -0.74329,0.8956 -3.73355,1.11624 -15.12791,1.11624 -12.29949,0 -14.2654,-0.16652 -14.67862,-1.24334 z"
       id="path4276"
       inkscape:connector-curvature="0"
       transform="translate(0,308.26772)" />
    <path
       style="fill:#552200;stroke:#000000;stroke-width:1.24366176;stroke-miterlimit:4;stroke-dasharray:none;stroke-opacity:1"
       d="m 619.33383,439.16632 c -4.6361,-1.63086 -5.01415,-2.73221 -3.37514,-9.83279 0.88214,-3.82164 1.66029,-4.87906 7.81864,-10.62478 3.28278,-3.06282 3.69117,-3.15111 6.90015,-1.49168 3.43081,1.77414 5.36171,5.45118 5.36515,10.21691 0.007,9.20199 -7.97336,14.80525 -16.7088,11.73234 z"
       id="path4278"
       inkscape:connector-curvature="0"
       transform="translate(0,308.26772)" />
    <path
       style="fill:#ffb380;stroke:#000000;stroke-width:1.24366176;stroke-miterlimit:4;stroke-dasharray:none;stroke-opacity:1"
       d="m 227.19173,320.73884 c 0,-1.03363 3.24263,-5.77296 3.94984,-5.77296 1.22902,0 0.77862,2.81262 -0.64637,4.03639 -1.90268,1.634 -3.30347,2.37037 -3.30347,1.73657 z"
       id="path4280"
       inkscape:connector-curvature="0"
       transform="translate(0,308.26772)" />
    <path
       style="fill:#e9ddaf;stroke:#000000;stroke-width:1.24366176;stroke-miterlimit:4;stroke-dasharray:none;stroke-opacity:1"
       d="m 268.77667,565.20395 c -1.28253,-0.43269 -4.78033,-1.45055 -7.77289,-2.26192 -6.5036,-1.7633 -16.02987,-5.27548 -17.06148,-6.29029 -0.40614,-0.39951 -1.63037,-0.73061 -2.72051,-0.73576 -1.09015,-0.005 -3.43989,-0.84298 -5.22163,-1.86184 -1.78176,-1.01886 -4.58,-2.29091 -6.21831,-2.82676 -1.63832,-0.53586 -4.19675,-1.79671 -5.68539,-2.80189 -1.48864,-1.00518 -3.01508,-1.82761 -3.39207,-1.82761 -0.377,0 -3.18149,-1.5129 -6.2322,-3.362 -3.05071,-1.8491 -7.82031,-4.71034 -10.59912,-6.35832 -2.77881,-1.64798 -8.54744,-5.73418 -12.81919,-9.08045 -5.10711,-4.00065 -9.76523,-6.90313 -13.60255,-8.47578 -3.20965,-1.31541 -10.73266,-4.60955 -16.71778,-7.32031 -5.98512,-2.71076 -12.85338,-5.79236 -15.26281,-6.848 -2.69838,-1.18224 -6.579,-3.98438 -10.10475,-7.2965 -3.14819,-2.95745 -8.27162,-6.92935 -11.38539,-8.82648 -6.54736,-3.98909 -10.70367,-9.39164 -13.3553,-17.3598 -1.14992,-3.4555 -2.68258,-5.97748 -5.2922,-8.70825 -7.944663,-8.31354 -10.421738,-12.09439 -14.972229,-22.85265 l -3.452137,-8.16153 -0.618381,-27.98238 c -0.914636,-41.38829 -0.853452,-48.14443 0.505849,-55.85687 0.667667,-3.78822 1.538155,-7.28602 1.934417,-7.77288 0.396263,-0.48686 1.165433,-2.45922 1.709266,-4.38301 1.883492,-6.66278 15.989355,-41.44562 20.208825,-49.83179 4.25812,-8.46298 15.71599,-19.30174 31.73639,-30.02156 5.70333,-3.8163 9.8338,-7.59664 18.86539,-17.26624 11.22154,-12.01425 17.34541,-17.05313 24.78494,-20.39369 4.22462,-1.89696 16.89361,-5.18139 22.11273,-5.73271 6.24575,-0.65977 28.44736,-5.01966 33.42341,-6.5636 4.76103,-1.47723 18.79658,-3.10676 26.75933,-3.10676 9.69333,0 15.66268,1.12883 25.70765,4.86143 6.90558,2.56604 19.05604,5.81318 32.64612,8.72449 10.09148,2.16183 13.38026,2.68881 21.76408,3.48736 4.48884,0.42756 10.26021,1.12359 12.82526,1.54674 2.56505,0.42314 8.33642,1.15574 12.82526,1.62799 4.48884,0.47225 10.54542,1.35634 13.45905,1.96464 2.91363,0.60831 7.04654,1.10601 9.18424,1.10601 2.1377,0 4.52624,0.34226 5.30787,0.76057 0.78163,0.41832 5.91789,0.96254 11.4139,1.20938 5.49602,0.24683 12.79101,0.96106 16.21108,1.58716 5.13673,0.94037 15.14128,1.10181 57.51935,0.92817 46.65704,-0.19116 52.10516,-0.081 60.18384,1.21665 13.80107,2.21688 19.91644,4.73226 32.93811,13.54817 3.33609,2.2586 7.77145,4.7547 9.85635,5.5469 5.82652,2.2139 16.34479,8.66919 19.65738,12.06415 1.63632,1.67701 4.94557,6.04926 7.35389,9.71611 2.40833,3.66686 6.67542,9.29746 9.48244,12.51245 2.80702,3.21499 6.3279,7.52639 7.82418,9.58088 1.49628,2.05448 4.31392,5.72006 6.26142,8.14575 8.54634,10.64478 11.91699,15.35039 13.99362,19.53585 2.43885,4.91554 5.21031,13.80398 6.19008,19.85246 0.34625,2.13754 1.17682,5.39785 1.8457,7.24513 0.66888,1.84728 1.58432,6.39442 2.0343,10.10475 0.44998,3.71033 1.20081,7.93555 1.66851,9.38939 0.52622,1.63572 0.70233,6.37641 0.46201,12.43662 -0.32803,8.27211 -0.76597,10.91188 -2.81944,16.99477 -1.3371,3.96082 -2.4311,7.79707 -2.4311,8.525 0,0.72793 -0.66833,4.13308 -1.48518,7.567 -2.90813,12.22529 -3.29187,14.08097 -4.02365,19.45739 -1.02038,7.49685 -3.40527,16.75388 -5.45547,21.17557 -0.94296,2.03372 -2.46329,5.45501 -3.3785,7.60289 -0.91522,2.14787 -2.73395,5.47078 -4.04164,7.38424 -1.30769,1.91346 -2.82598,4.87814 -3.37398,6.58817 -0.548,1.71004 -2.95018,6.94996 -5.33818,11.64428 -4.5624,8.96871 -8.5458,13.65211 -14.46129,17.00255 -1.72491,0.97696 -6.634,3.80851 -10.90909,6.29233 -8.12233,4.71908 -18.79127,9.22515 -24.09594,10.17702 -1.71004,0.30685 -3.45894,0.82101 -3.88645,1.14258 -0.4275,0.32158 -5.49931,2.41873 -11.27068,4.66034 -11.67635,4.53512 -13.55439,5.32298 -21.37544,8.96727 -8.73063,4.06812 -15.28971,6.57181 -17.21661,6.57181 -0.98531,0 -3.98558,0.82208 -6.66727,1.82685 -5.86402,2.19712 -10.69912,3.36562 -18.47835,4.46568 -12.96388,1.83321 -23.35537,3.65648 -34.48058,6.04986 -9.30687,2.00221 -20.52964,2.19549 -25.46723,0.43859 -8.05367,-2.86565 -33.09817,-5.34161 -51.83359,-5.12439 -14.74012,0.1709 -16.15666,0.31557 -21.37544,2.18304 -3.07404,1.10001 -6.07861,2.39668 -6.67682,2.88147 -1.45275,1.17733 -9.2966,4.09074 -16.0127,5.94754 -3.84331,1.06256 -7.97761,1.50965 -14.07942,1.52256 -4.75113,0.0101 -10.3476,0.33395 -12.43662,0.71974 -5.76545,1.06473 -52.31329,1.74419 -55.09926,0.80428 z m 270.83342,-38.71904 c 0.77736,-1.45253 -0.0639,-14.78285 -1.17117,-18.55713 -0.97097,-3.30979 -2.10917,-1.8938 -1.562,1.94322 1.15725,8.11527 1.39183,11.88096 0.86931,13.95529 l -0.5475,2.17345 -1.57062,-1.93581 c -4.03906,-4.97817 -5.29383,-8.9349 -5.29383,-16.69328 0,-4.18739 -0.32273,-7.41008 -0.74207,-7.41008 -2.09533,0 -2.00493,15.2414 0.1108,18.68205 0.64804,1.05386 2.11927,3.57755 3.2694,5.60822 1.59333,2.8132 2.53941,3.69212 3.97424,3.69212 1.04603,0 2.22998,-0.64813 2.66344,-1.45805 z m -258.22038,-37.416 c 0.14816,-4.23486 -0.19626,-5.80922 -2.14984,-9.82686 -2.12776,-4.37585 -2.28393,-5.23975 -1.83002,-10.12354 0.39149,-4.21227 0.13941,-6.64009 -1.19406,-11.50066 -0.92967,-3.38867 -2.19406,-10.37582 -2.80976,-15.52699 -1.7812,-14.90217 -5.99199,-29.67382 -8.71013,-30.55556 -1.37162,-0.44494 -1.25112,3.85906 0.20565,7.34559 1.56511,3.74585 3.20762,11.12137 3.86201,17.34201 0.29233,2.77881 1.02333,7.01257 1.62444,9.40835 0.60113,2.39578 1.61654,10.26583 2.25647,17.48899 0.63994,7.22317 1.51804,14.35495 1.95134,15.8484 0.4333,1.49346 0.78781,3.97717 0.78781,5.51935 0,5.21256 2.36376,10.28827 4.59225,9.86096 0.95738,-0.18357 1.27734,-1.37848 1.41384,-5.28004 z m 100.9041,-4.22456 c 0.92237,-2.20756 0.94962,-3.18981 0.15465,-5.57586 -1.29473,-3.88609 -3.39494,-4.69882 -2.53708,-0.98178 1.16044,5.02806 0.9444,6.49553 -0.99679,6.77072 -3.92046,0.55576 -10.11029,-6.57192 -9.12307,-10.50535 0.39128,-1.55896 0.21956,-1.87255 -0.90835,-1.65881 -0.9127,0.17296 -1.4718,1.09253 -1.62632,2.67485 -0.28775,2.94655 2.50266,6.54591 7.56229,9.75463 4.60708,2.92172 6.09376,2.82657 7.47467,-0.4784 z m -19.32232,-41.82017 c 3.05793,-3.23074 4.13219,-5.35842 4.13219,-8.18428 0,-3.03954 -2.302,-5.00998 -5.48579,-4.69565 -3.27604,0.32343 -5.44213,3.23692 -5.98458,8.04954 -0.52664,4.67227 0.81634,4.1413 2.06468,-0.81633 0.6248,-2.48131 1.44976,-3.79051 2.76654,-4.39048 4.53948,-2.06832 5.96727,2.77114 2.15066,7.28964 -4.17075,4.93779 -4.371,5.27375 -3.14341,5.27375 0.60975,0 2.18461,-1.13679 3.49971,-2.52619 z m 266.29773,-1.65622 c 1.37567,-0.59029 3.72545,-2.35786 5.22173,-3.92796 2.67688,-2.80894 2.72442,-2.97558 2.96399,-10.39176 l 0.24347,-7.53704 -3.74127,-2.48473 c -3.97142,-2.63758 -8.01636,-4.02782 -8.01636,-2.7552 0,0.41704 -1.48657,1.73002 -3.30348,2.91773 -4.28811,2.80313 -7.36579,6.39637 -7.98085,9.31779 -0.27001,1.28253 -1.01224,3.48197 -1.64941,4.88766 -0.92984,2.05136 -0.98321,3.08687 -0.2704,5.2467 0.48844,1.47999 0.96183,2.69091 1.05196,2.69091 0.0901,0 2.07424,0.68694 4.40913,1.52653 5.07462,1.82477 7.72208,1.94657 11.07149,0.50937 z M 451.28733,406.05265 c -0.15538,-3.42473 -2.22747,-7.93281 -3.90295,-8.49131 -0.6135,-0.20449 -0.3826,1.31543 0.67614,4.45052 0.88432,2.61859 1.37746,4.99147 1.09587,5.27305 -0.79217,0.79217 -2.97716,-0.8897 -4.33234,-3.33481 -2.14425,-3.86875 -4.21425,-3.27135 -2.25016,0.64939 1.38936,2.77344 4.80271,5.24764 6.92238,5.01772 1.76751,-0.19171 1.92946,-0.51401 1.79106,-3.56456 z M 155.98666,400.7927 c 0.25949,-0.67623 0.47181,-2.1141 0.47181,-3.19527 l 0,-1.96576 1.48766,1.83502 c 1.92023,2.36856 2.88869,1.3965 1.63181,-1.63788 -1.29543,-3.12745 -3.49119,-3.08397 -4.59801,0.0911 -1.03057,2.95629 -1.11265,6.10232 -0.1592,6.10232 0.38177,0 0.90644,-0.55327 1.16593,-1.2295 z m 429.38586,-11.09843 c 0.63388,-0.402 0.83526,-1.36767 0.53484,-2.56464 -0.75413,-3.00471 -5.97991,-9.45788 -8.81091,-10.88037 -3.50839,-1.76285 -5.56587,-3.74273 -5.56587,-5.35591 0,-1.30552 -2.15441,-2.73111 -2.94006,-1.94546 -0.83284,0.83283 2.82657,7.6123 4.57868,8.48253 1.02255,0.50786 1.97446,1.72845 2.11536,2.71242 0.43816,3.05967 3.53814,8.18463 5.57348,9.21417 2.27607,1.15132 3.1303,1.21513 4.51448,0.33726 z m -396.04354,-6.33891 c -0.0903,-3.12393 -0.52756,-6.04318 -0.97161,-6.48723 -0.55829,-0.55829 -0.80736,-0.1957 -0.80736,1.17533 0,1.09047 -0.38775,3.09499 -0.86167,4.45448 -0.65086,1.86705 -0.62482,3.04362 0.10643,4.80902 1.63248,3.94114 2.7137,2.25519 2.53421,-3.9516 z m 121.82701,-0.77452 c 2.05802,-1.10142 3.24355,-5.86907 2.31598,-9.3138 -0.60874,-2.2607 -6.99681,-9.94628 -6.99681,-8.41796 0,0.24871 1.22423,2.48525 2.72051,4.97007 2.91495,4.84074 3.31539,6.99644 1.70801,9.19467 -0.9206,1.25899 -1.10563,1.27247 -2.0384,0.14856 -0.56424,-0.67987 -1.33284,-1.23612 -1.708,-1.23612 -1.13667,0 -0.76392,2.91631 0.53934,4.21956 1.44175,1.44176 1.5523,1.45565 3.45937,0.43502 z M 180.08261,338.60961 c 0.6144,-1.60112 0.47062,-7.94639 -0.23634,-10.42982 -0.49129,-1.72584 -0.71133,-1.44509 -1.96692,2.50958 -1.1916,3.75312 -1.26089,4.82182 -0.44097,6.80128 1.08082,2.60932 1.93381,2.97029 2.64423,1.11896 z m 51.49508,-17.84218 c 3.20777,-3.46332 3.97541,-4.80793 3.88644,-6.80756 -0.10348,-2.32568 0.10934,-2.5406 3.1926,-3.22404 4.45396,-0.98727 4.38248,-2.76555 -0.11116,-2.76555 -3.72498,0 -4.35824,0.7044 -4.35824,4.84778 0,2.27746 -0.0672,2.32795 -1.44217,1.08362 -1.97113,-1.78385 -3.67228,-0.93581 -5.96268,2.97246 -2.54944,4.35028 -2.57008,8.18395 -0.0442,8.20277 0.46313,0.003 2.64085,-1.93582 4.83937,-4.30948 l -1e-5,0 z m 229.38358,2.99011 c -1.16654,-0.30485 -1.36025,-1.33743 -1.36025,-7.25073 0,-6.03958 -0.21704,-7.14356 -1.7489,-8.89618 -1.74296,-1.99412 -1.7581,-1.99625 -4.45693,-0.62631 -1.89466,0.96174 -3.36548,2.66756 -4.89688,5.6793 -2.35369,4.62893 -2.27773,5.9915 0.43,7.71342 1.90804,1.21338 10.37955,3.8259 12.22729,3.77076 0.78972,-0.0236 0.72703,-0.14948 -0.19433,-0.39026 z M 178.1952,311.90783 c 0.44255,-0.82692 0.80463,-3.62515 0.80463,-6.21831 0,-4.64737 -0.0312,-4.71483 -2.17968,-4.71483 -2.69868,0 -8.38558,3.52774 -11.33233,7.02975 -3.21487,3.82066 -1.0348,3.93049 2.89812,0.146 3.16899,-3.04938 5.89764,-4.84389 7.36542,-4.84389 0.40709,0 0.91522,1.13679 1.12917,2.52619 0.49076,3.187 -1.04518,5.03482 -4.78868,5.76108 -2.65417,0.51492 -2.70158,0.57543 -0.8649,1.10365 3.66507,1.05408 6.13108,0.77463 6.96825,-0.78964 z M 375.25308,299.7762 c 1.66667,-5.46415 1.93442,-7.49374 1.51246,-11.46501 -0.5624,-5.293 -6.05333,-19.20354 -10.52858,-26.67269 -2.7385,-4.57056 -16.85329,-18.18317 -18.85394,-18.18317 -1.57233,0 -3.52362,5.42366 -4.54193,12.62441 -0.8358,5.91008 -0.80005,6.27205 0.7387,7.48081 2.61001,2.05026 25.07846,36.83997 25.07846,38.83099 0,1.18563 2.46516,4.02417 3.49484,4.02417 0.67295,0 1.83201,-2.48245 3.09999,-6.63951 z m 83.89572,4.61312 c 0.67623,-0.25949 1.22951,-0.97032 1.22951,-1.57962 0,-1.36133 -3.29622,-2.73291 -3.98192,-1.65691 -0.3098,0.48616 -1.06103,0.45093 -2.08644,-0.0978 -2.16559,-1.15899 -2.48182,-1.08998 -2.48182,0.54158 0,2.78917 3.67579,4.19147 7.32067,2.7928 z m -293.37477,-3.60896 c -0.0158,-2.31222 -1.15428,-4.0239 -2.23307,-3.35718 -1.14025,0.70471 -1.1025,3.00227 0.0686,4.17334 1.41303,1.41302 2.17771,1.12468 2.16451,-0.81616 z m 314.99417,-2.13754 c 0.69117,-1.10674 1.81266,-1.55458 3.89303,-1.55458 1.6072,0 2.92218,-0.31556 2.92218,-0.70124 0,-1.31493 -4.88538,-2.40806 -10.41506,-2.33043 -7.57016,0.10627 -9.4058,0.70328 -9.4058,3.05908 0,2.14108 1.92223,2.82941 8.34927,2.98979 2.90567,0.0725 3.89096,-0.23699 4.65638,-1.46262 z m 75.63022,-1.12627 c 3.01956,-1.26165 3.42558,-2.98022 1.55753,-6.59263 -1.56096,-3.01855 -5.72789,-6.38202 -7.71529,-6.22762 -2.93853,0.22827 -3.3817,-0.0133 -4.36061,-2.37654 -1.16595,-2.81487 -2.33186,-3.03538 -2.33186,-0.44103 0,2.14475 -0.6746,2.4311 -7.38424,3.13442 -6.9602,0.72959 -8.77156,1.68847 -10.54547,5.58245 -1.57699,3.46169 -1.20616,5.88575 1.14004,7.45235 0.47039,0.31409 6.7253,0.57642 13.8998,0.58297 9.65496,0.009 13.74498,-0.28076 15.7401,-1.11437 z"
       id="path4282"
       inkscape:connector-curvature="0"
       transform="translate(0,308.26772)" />
    <path
       style="fill:#502d16;stroke:#000000;stroke-width:1.24366176;stroke-miterlimit:4;stroke-dasharray:none;stroke-opacity:1"
       d="m 579.52717,385.11618 c -2.42709,-2.12791 -4.10657,-5.63535 -2.6984,-5.63535 0.93988,0 6.36114,5.96388 6.36114,6.99784 0,1.29262 -1.1018,0.88276 -3.66274,-1.36249 z"
       id="path4284"
       inkscape:connector-curvature="0"
       transform="translate(0,308.26772)" />
    <path
       style="fill:#502d16;stroke:#000000;stroke-width:1.24366176;stroke-miterlimit:4;stroke-dasharray:none;stroke-opacity:1"
       d="m 364.61431,289.50183 c -3.72045,-6.30631 -9.23739,-14.94764 -12.25987,-19.20294 -7.05466,-9.93216 -7.77403,-12.21023 -5.7905,-18.3371 l 1.49616,-4.62149 7.01817,6.80201 c 3.85999,3.74111 8.27845,8.90069 9.8188,11.46574 3.3627,5.59972 8.07379,17.35866 8.81945,22.01347 0.52796,3.29588 -0.86081,13.35652 -1.8428,13.34976 -0.27223,-0.002 -3.53896,-5.16313 -7.25941,-11.46945 z"
       id="path4286"
       inkscape:connector-curvature="0"
       transform="translate(0,308.26772)" />
    <path
       style="fill:#502d16;stroke:#000000;stroke-width:1.24366176;stroke-miterlimit:4;stroke-dasharray:none;stroke-opacity:1"
       d="m 452.79974,318.71638 c -1.3894,-0.85895 -2.52618,-1.89669 -2.52618,-2.30607 0,-1.17659 2.11839,-4.96336 3.34703,-5.98304 0.91144,-0.75643 1.27263,-0.53085 1.95748,1.22255 1.24602,3.19011 1.46019,8.81744 0.33083,8.69269 -0.32063,-0.0354 -1.71975,-0.76718 -3.10916,-1.62613 z"
       id="path4288"
       inkscape:connector-curvature="0"
       transform="translate(0,308.26772)" />
    <path
       style="fill:#502d16;stroke:#000000;stroke-width:1.24366176;stroke-miterlimit:4;stroke-dasharray:none;stroke-opacity:1"
       d="m 528.52061,295.01547 c -1.16183,-1.16182 -0.38174,-3.34488 1.87331,-5.24237 2.26646,-1.90711 2.85434,-2.01232 11.24364,-2.01232 8.79298,0 8.87049,0.0161 11.59969,2.41239 3.1761,2.78865 3.46733,4.209 0.99866,4.87058 -2.39319,0.64135 -25.07061,0.61641 -25.7153,-0.0283 z"
       id="path4290"
       inkscape:connector-curvature="0"
       transform="translate(0,308.26772)" />
    <path
       style="fill:#502d16;stroke:#000000;stroke-width:1.24366176;stroke-miterlimit:4;stroke-dasharray:none;stroke-opacity:1"
       d="m 619.79701,438.31657 c -3.78766,-1.32804 -4.29644,-2.56325 -3.21047,-7.79434 0.81834,-3.94194 1.48912,-5.01468 5.69022,-9.10013 2.61939,-2.54728 5.2499,-4.63141 5.84558,-4.63141 0.59568,0 2.24472,1.16166 3.66453,2.58147 5.72712,5.72713 3.992,15.87014 -3.23112,18.88816 -3.07166,1.28341 -5.21945,1.29721 -8.75874,0.0563 z"
       id="path4292"
       inkscape:connector-curvature="0"
       transform="translate(0,308.26772)" />
    <path
       style="fill:#502d16;stroke:#000000;stroke-width:1.24366176;stroke-miterlimit:4;stroke-dasharray:none;stroke-opacity:1"
       d=""
       id="path4294"
       inkscape:connector-curvature="0"
       transform="translate(0,308.26772)" />
    <path
       style="fill:#502d16;stroke:#000000;stroke-width:1.24366176;stroke-miterlimit:4;stroke-dasharray:none;stroke-opacity:1"
       d=""
       id="path4296"
       inkscape:connector-curvature="0"
       transform="translate(0,308.26772)" />
  </g>
</svg>
